<?xml version="1.0" encoding="utf-8"?>
<!-- Generator: Adobe Illustrator 15.0.0, SVG Export Plug-In . SVG Version: 6.00 Build 0)  -->
<!DOCTYPE svg PUBLIC "-//W3C//DTD SVG 1.1//EN" "http://www.w3.org/Graphics/SVG/1.1/DTD/svg11.dtd">
<svg version="1.1" id="Layer_1" xmlns="http://www.w3.org/2000/svg" xmlns:xlink="http://www.w3.org/1999/xlink" x="0px" y="0px"
	 width="800px" height="600px" viewBox="0 0 800 600" enable-background="new 0 0 800 600" xml:space="preserve">
<g>
	<rect x="95" y="217.984" fill="none" width="573.001" height="138"/>
	<text transform="matrix(1 0 0 1 95.0015 331.8867)" fill="#4F4F4F" font-family="'Impact'" font-size="144">PomBase</text>
	<g>
		<g>
			<path id="path4132_4_" inkscape:connector-curvature="0" fill="#48B549" d="M215.433,311.678c0,5.646-5.438,10.229-12.146,10.229
				c-6.709,0-12.148-4.583-12.148-10.229v-54.554c0-5.652,5.439-10.228,12.148-10.228c6.708,0,12.146,4.576,12.146,10.228V311.678z"
				/>
			<path id="path4144_4_" inkscape:connector-curvature="0" fill="#FFFFFF" d="M191.962,257.122l-0.44,0v0H191.962z
				 M193.174,257.122l-0.001,54.554c0.006,4.234,4.28,8.184,10.114,8.193c5.831-0.01,10.103-3.957,10.109-8.191v-54.553
				c-0.007-4.236-4.278-8.181-10.107-8.194C197.456,248.944,193.182,252.885,193.174,257.122L193.174,257.122z M189.1,311.683
				l1.212-0.005H189.1V257.12c0.062-7.052,6.606-12.261,14.189-12.261c7.579,0,14.118,5.208,14.182,12.263v54.561
				c-0.063,7.046-6.603,12.262-14.185,12.262S189.166,318.729,189.1,311.683"/>
		</g>
		<g>
			<path id="path4148_4_" inkscape:connector-curvature="0" fill="#ED3335" d="M213.417,284.401c0,5.559-4.538,10.063-10.128,10.063
				c-5.598,0-10.135-4.505-10.135-10.063c0-5.557,4.537-10.063,10.135-10.063C208.879,274.338,213.417,278.844,213.417,284.401"/>
			<path id="path4160_4_" inkscape:connector-curvature="0" fill="#FFFFFF" d="M193.538,284.402L193.538,284.402h0.44H193.538z
				 M203.287,292.426c4.479-0.007,8.086-3.604,8.092-8.023c-0.006-4.424-3.611-8.019-8.092-8.027
				c-4.481,0.002-8.088,3.602-8.099,8.027C195.199,288.823,198.805,292.423,203.287,292.426 M191.116,284.402
				c0-6.698,5.464-12.089,12.171-12.101c6.708,0,12.164,5.403,12.169,12.101c-0.008,6.694-5.461,12.095-12.171,12.1
				C196.58,296.49,191.116,291.099,191.116,284.402"/>
		</g>
	</g>
</g>
</svg>
