<?xml version="1.0" standalone="no"?>
<!DOCTYPE svg PUBLIC "-//W3C//DTD SVG 20010904//EN"
 "http://www.w3.org/TR/2001/REC-SVG-20010904/DTD/svg10.dtd">
<svg version="1.0" xmlns="http://www.w3.org/2000/svg"
 width="263.000000pt" height="263.000000pt" viewBox="0 0 263.000000 263.000000"
 preserveAspectRatio="xMidYMid meet">
<metadata>
Created by potrace 1.11, written by Peter Selinger 2001-2013
</metadata>
<g transform="translate(0.000000,263.000000) scale(0.100000,-0.100000)"
fill="#000000" stroke="none">
<path d="M1153 2599 c-269 -35 -474 -163 -578 -361 -45 -85 -80 -219 -94 -362
-14 -139 -14 -1004 -1 -1151 41 -435 229 -632 653 -685 145 -19 408 -8 517 20
179 46 314 130 405 252 152 203 169 321 162 1128 -5 597 -5 601 -83 760 -109
220 -336 362 -639 399 -101 12 -249 13 -342 0z m349 -211 c72 -33 142 -98 176
-163 l27 -50 0 -815 0 -815 -28 -57 c-49 -99 -152 -169 -283 -191 -132 -23
-282 28 -369 125 -79 88 -75 42 -75 942 l0 801 24 52 c41 87 121 153 231 190
25 8 77 12 140 10 83 -2 110 -7 157 -29z"/>
<path d="M1235 1549 c-85 -45 -119 -102 -119 -194 1 -72 19 -110 75 -158 109
-94 279 -55 334 75 17 42 20 124 6 161 -16 40 -73 99 -116 118 -55 25 -130 24
-180 -2z"/>
</g>
</svg>
