<svg version="1" xmlns="http://www.w3.org/2000/svg" width="350.667" height="350.667" viewBox="0 0 263.000000 263.000000"><path d="M121 2.7c-34 2.7-59.1 20-67.5 46.6-5.6 17.8-6 22.3-6 83.2 0 60 .5 67.9 5.1 82.5 10.1 32.2 38.7 46.6 88.4 44.7 16.8-.7 29.7-3.5 41.3-9.1 17.4-8.3 31.8-26.8 36.1-46.1 2.5-11.7 3.6-34 3.6-78 0-40.8-.9-59.8-3.1-69.4-1.7-7-8.3-19.9-13.4-26.3C189.2 10.6 157-.1 121 2.7zm30.2 22.1c8.3 4.1 14.8 10.9 17.7 18.6 2.1 5.8 2.1 5.8 1.9 85.4-.3 79.4-.3 79.7-2.5 84.4-6.4 14-25.1 23-41.7 20.1-12.9-2.2-23.7-9.4-28.6-19l-2.5-4.8v-165l2.3-4.3c4.4-8.2 12.3-14.4 22.7-17.9 2.5-.8 7.7-1.2 14.1-1 9 .2 10.7.6 16.6 3.5z"/><path d="M122.2 33.9c-6 2.1-11.4 6.8-14.3 12.3-1.7 3.4-1.9 6.1-1.9 32.5v28.7l3.8-3.6c6-6 14.3-9.2 23.2-9.3 6.6 0 8.5.5 14.2 3.3 3.7 1.8 8 4.8 9.7 6.8l3.1 3.5V80.4c0-18.9-.4-29-1.2-31.8-.8-2.5-3.1-5.9-5.8-8.6-7.6-7.6-19.5-10-30.8-6.1z"/><path d="M125 107.1c-7.6 3.1-14 12.3-14 20.4.1 11 11.1 21.6 22.4 21.5 6.5-.1 15.2-5.5 18.4-11.5 7.5-14.4-2.8-31.6-18.9-31.4-3 0-6.5.5-7.9 1z"/><path d="M106 175.8c0 28.3 0 29 2.3 33.3 2.8 5.2 9.2 10.4 15 12.1 12.7 3.6 27.2-1 33.2-10.6l3-4.9.3-29.6.3-29.6-4.3 4.1c-7.4 7.2-11.8 8.9-22.8 8.9-8.9 0-9.9-.2-15.8-3.4-3.5-1.9-7.4-4.7-8.8-6.3l-2.4-3v29z"/></svg>