<?xml version="1.0" encoding="utf-8" standalone="no"?>
<!DOCTYPE svg PUBLIC "-//W3C//DTD SVG 1.1//EN"
  "http://www.w3.org/Graphics/SVG/1.1/DTD/svg11.dtd">
<svg xmlns:xlink="http://www.w3.org/1999/xlink" width="460.8pt" height="345.6pt" viewBox="0 0 460.8 345.6" xmlns="http://www.w3.org/2000/svg" version="1.1">
 <metadata>
  <rdf:RDF xmlns:dc="http://purl.org/dc/elements/1.1/" xmlns:cc="http://creativecommons.org/ns#" xmlns:rdf="http://www.w3.org/1999/02/22-rdf-syntax-ns#">
   <cc:Work>
    <dc:type rdf:resource="http://purl.org/dc/dcmitype/StillImage"/>
    <dc:date>2025-09-02T00:50:43.754554</dc:date>
    <dc:format>image/svg+xml</dc:format>
    <dc:creator>
     <cc:Agent>
      <dc:title>Matplotlib v3.7.1, https://matplotlib.org/</dc:title>
     </cc:Agent>
    </dc:creator>
   </cc:Work>
  </rdf:RDF>
 </metadata>
 <defs>
  <style type="text/css">*{stroke-linejoin: round; stroke-linecap: butt}</style>
 </defs>
 <g id="figure_1">
  <g id="patch_1">
   <path d="M 0 345.6 
L 460.8 345.6 
L 460.8 0 
L 0 0 
z
" style="fill: #ffffff"/>
  </g>
  <g id="axes_1">
   <g id="patch_2">
    <path d="M 61.49 274.570598 
L 450 274.570598 
L 450 71.029402 
L 61.49 71.029402 
z
" style="fill: #ffffff"/>
   </g>
   <g id="PolyCollection_1">
    <path d="M 32.575183 222.91583 
L 32.575183 274.570598 
L 40.652214 274.570598 
L 48.63366 274.570598 
L 65.026688 274.570598 
L 84.048337 274.570598 
L 98.051711 274.570598 
L 106.750053 274.570598 
L 108.996328 274.570598 
L 113.154326 274.570598 
L 115.06605 274.570598 
L 115.305015 274.570598 
L 118.459359 274.570598 
L 119.271842 274.570598 
L 119.940945 274.570598 
L 120.753427 274.570598 
L 121.279151 274.570598 
L 122.091634 274.570598 
L 122.569565 274.570598 
L 123.42984 274.570598 
L 124.576874 274.570598 
L 125.484943 274.570598 
L 125.819494 274.570598 
L 126.775356 274.570598 
L 127.444459 274.570598 
L 128.161356 274.570598 
L 128.926045 274.570598 
L 129.451769 274.570598 
L 129.9297 274.570598 
L 131.267906 274.570598 
L 132.223768 274.570598 
L 132.940664 274.570598 
L 133.131837 274.570598 
L 133.80094 274.570598 
L 134.804595 274.570598 
L 135.856043 274.570598 
L 136.572939 274.570598 
L 137.624387 274.570598 
L 139.010386 274.570598 
L 140.92211 274.570598 
L 142.594868 274.570598 
L 144.02866 274.570598 
L 146.705073 274.570598 
L 147.852107 274.570598 
L 150.958658 274.570598 
L 152.965968 274.570598 
L 154.208588 274.570598 
L 154.973277 274.570598 
L 157.984242 274.570598 
L 159.657 274.570598 
L 161.377551 274.570598 
L 164.77086 274.570598 
L 167.925204 274.570598 
L 168.450928 274.570598 
L 169.072238 274.570598 
L 170.028099 274.570598 
L 170.792789 274.570598 
L 173.13465 274.570598 
L 177.818372 274.570598 
L 178.726441 274.570598 
L 183.123405 274.570598 
L 184.12706 274.570598 
L 185.130715 274.570598 
L 186.75568 274.570598 
L 188.093886 274.570598 
L 189.384299 274.570598 
L 190.196782 274.570598 
L 192.825402 274.570598 
L 195.549608 274.570598 
L 196.887814 274.570598 
L 197.843676 274.570598 
L 199.038503 274.570598 
L 200.042158 274.570598 
L 201.236985 274.570598 
L 204.056777 274.570598 
L 205.538363 274.570598 
L 206.972155 274.570598 
L 208.453741 274.570598 
L 209.887534 274.570598 
L 211.369119 274.570598 
L 212.850705 274.570598 
L 214.236704 274.570598 
L 215.71829 274.570598 
L 217.152083 274.570598 
L 218.633668 274.570598 
L 220.067461 274.570598 
L 221.549047 274.570598 
L 223.030632 274.570598 
L 224.464425 274.570598 
L 225.946011 274.570598 
L 227.379803 274.570598 
L 228.861389 274.570598 
L 230.342975 274.570598 
L 231.681181 274.570598 
L 233.162767 274.570598 
L 234.596559 274.570598 
L 236.078145 274.570598 
L 237.511938 274.570598 
L 238.993523 274.570598 
L 240.475109 274.570598 
L 241.908901 274.570598 
L 243.390487 274.570598 
L 244.82428 274.570598 
L 246.305865 274.570598 
L 247.787451 274.570598 
L 249.125658 274.570598 
L 250.607243 274.570598 
L 252.041036 274.570598 
L 253.522621 274.570598 
L 254.956414 274.570598 
L 256.438 274.570598 
L 257.919585 274.570598 
L 259.353378 274.570598 
L 260.834964 274.570598 
L 262.268756 274.570598 
L 263.750342 274.570598 
L 265.231928 274.570598 
L 266.570134 274.570598 
L 268.05172 274.570598 
L 269.485512 274.570598 
L 270.967098 274.570598 
L 272.400891 274.570598 
L 273.882476 274.570598 
L 275.364062 274.570598 
L 276.797855 274.570598 
L 278.27944 274.570598 
L 279.713233 274.570598 
L 281.194819 274.570598 
L 282.676404 274.570598 
L 284.062404 274.570598 
L 285.543989 274.570598 
L 286.977782 274.570598 
L 288.459368 274.570598 
L 289.89316 274.570598 
L 291.374746 274.570598 
L 292.856332 274.570598 
L 294.290124 274.570598 
L 295.77171 274.570598 
L 297.205503 274.570598 
L 298.687088 274.570598 
L 300.168674 274.570598 
L 301.50688 274.570598 
L 302.988466 274.570598 
L 304.422259 274.570598 
L 305.903844 274.570598 
L 307.337637 274.570598 
L 308.819223 274.570598 
L 310.300808 274.570598 
L 311.734601 274.570598 
L 313.216186 274.570598 
L 314.649979 274.570598 
L 316.131565 274.570598 
L 317.61315 274.570598 
L 318.951357 274.570598 
L 320.432943 274.570598 
L 321.866735 274.570598 
L 323.348321 274.570598 
L 324.782113 274.570598 
L 326.263699 274.570598 
L 327.745285 274.570598 
L 329.179077 274.570598 
L 330.660663 274.570598 
L 332.094456 274.570598 
L 333.576041 274.570598 
L 335.057627 274.570598 
L 336.395833 274.570598 
L 337.877419 274.570598 
L 339.311212 274.570598 
L 340.792797 274.570598 
L 342.22659 274.570598 
L 343.708176 274.570598 
L 345.189761 274.570598 
L 346.623554 274.570598 
L 348.10514 274.570598 
L 349.538932 274.570598 
L 351.020518 274.570598 
L 352.502104 274.570598 
L 353.888103 274.570598 
L 355.369689 274.570598 
L 356.803481 274.570598 
L 358.285067 274.570598 
L 359.71886 274.570598 
L 361.200445 274.570598 
L 362.682031 274.570598 
L 364.115824 274.570598 
L 365.597409 274.570598 
L 367.031202 274.570598 
L 368.512788 274.570598 
L 369.994373 274.570598 
L 371.33258 274.570598 
L 372.814165 274.570598 
L 374.247958 274.570598 
L 375.729544 274.570598 
L 377.163336 274.570598 
L 378.644922 274.570598 
L 380.126508 274.570598 
L 381.5603 274.570598 
L 383.041886 274.570598 
L 384.475678 274.570598 
L 385.957264 274.570598 
L 387.43885 274.570598 
L 388.777056 274.570598 
L 390.258642 274.570598 
L 391.692434 274.570598 
L 393.17402 274.570598 
L 394.607813 274.570598 
L 396.089398 274.570598 
L 397.570984 274.570598 
L 399.004777 274.570598 
L 400.486362 274.570598 
L 401.920155 274.570598 
L 403.401741 274.570598 
L 404.883326 274.570598 
L 406.221533 274.570598 
L 407.703118 274.570598 
L 409.136911 274.570598 
L 410.618497 274.570598 
L 412.052289 274.570598 
L 413.533875 274.570598 
L 415.015461 274.570598 
L 416.449253 274.570598 
L 417.930839 274.570598 
L 419.364632 274.570598 
L 420.846217 274.570598 
L 422.327803 274.570598 
L 423.713802 274.570598 
L 425.195388 274.570598 
L 426.629181 274.570598 
L 428.110766 274.570598 
L 429.544559 274.570598 
L 431.026145 274.570598 
L 432.50773 274.570598 
L 433.941523 274.570598 
L 435.423109 274.570598 
L 436.856901 274.570598 
L 438.338487 274.570598 
L 439.820073 274.570598 
L 441.158279 274.570598 
L 442.639865 274.570598 
L 444.073657 274.570598 
L 445.555243 274.570598 
L 446.989036 274.570598 
L 448.470621 274.570598 
L 449.952207 274.570598 
L 449.952207 169.464043 
L 449.952207 169.464043 
L 448.470621 169.349339 
L 446.989036 169.425808 
L 445.555243 169.464043 
L 444.073657 169.464043 
L 442.639865 169.769918 
L 441.158279 169.808153 
L 439.820073 170.802249 
L 438.338487 172.981614 
L 436.856901 173.746303 
L 435.423109 173.97571 
L 433.941523 173.97571 
L 432.50773 174.205117 
L 431.026145 174.205117 
L 429.544559 175.046275 
L 428.110766 175.581558 
L 426.629181 175.696261 
L 425.195388 175.810964 
L 423.713802 175.887433 
L 422.327803 177.531516 
L 420.846217 177.646219 
L 419.364632 177.684453 
L 417.930839 177.91386 
L 416.449253 178.028564 
L 415.015461 178.066798 
L 413.533875 178.181502 
L 412.052289 178.640315 
L 410.618497 178.869722 
L 409.136911 178.984425 
L 407.703118 178.984425 
L 406.221533 179.328536 
L 404.883326 179.902053 
L 403.401741 179.863818 
L 401.920155 179.978522 
L 400.486362 180.093225 
L 399.004777 180.322632 
L 397.570984 180.322632 
L 396.089398 180.360866 
L 394.607813 180.360866 
L 393.17402 180.322632 
L 391.692434 180.399101 
L 390.258642 180.322632 
L 388.777056 180.284397 
L 387.43885 180.322632 
L 385.957264 180.322632 
L 384.475678 180.513804 
L 383.041886 180.704977 
L 381.5603 181.010852 
L 380.126508 181.240259 
L 378.644922 181.202025 
L 377.163336 181.393197 
L 375.729544 181.660838 
L 374.247958 181.660838 
L 372.814165 181.813776 
L 371.33258 182.310824 
L 369.994373 182.425528 
L 368.512788 182.846107 
L 367.031202 182.884341 
L 365.597409 183.037279 
L 364.115824 183.113748 
L 362.682031 183.266686 
L 361.200445 183.30492 
L 359.71886 183.381389 
L 358.285067 183.381389 
L 356.803481 183.457858 
L 355.369689 183.801969 
L 353.888103 183.916672 
L 352.502104 183.993141 
L 351.020518 184.06961 
L 349.538932 184.06961 
L 348.10514 184.06961 
L 346.623554 184.184313 
L 345.189761 184.260782 
L 343.708176 184.41372 
L 342.22659 184.643127 
L 340.792797 184.75783 
L 339.311212 184.834299 
L 337.877419 184.910768 
L 336.395833 184.949003 
L 335.057627 184.949003 
L 333.576041 184.987237 
L 332.094456 185.025472 
L 330.660663 185.10194 
L 329.179077 185.140175 
L 327.745285 185.140175 
L 326.263699 185.254878 
L 324.782113 185.369582 
L 323.348321 185.598989 
L 321.866735 185.751926 
L 320.432943 186.057802 
L 318.951357 186.21074 
L 317.61315 186.363678 
L 316.131565 186.401912 
L 314.649979 186.55485 
L 313.216186 186.707788 
L 311.734601 188.390105 
L 310.300808 188.657746 
L 308.819223 189.384201 
L 307.337637 188.77245 
L 305.903844 188.695981 
L 304.422259 188.734215 
L 302.988466 188.810684 
L 301.50688 189.078325 
L 300.168674 189.11656 
L 298.687088 189.193029 
L 297.205503 189.919484 
L 295.77171 190.034187 
L 294.290124 190.225359 
L 292.856332 190.301828 
L 291.374746 190.416532 
L 289.89316 190.837111 
L 288.459368 191.028283 
L 286.977782 191.028283 
L 285.543989 191.410628 
L 284.062404 191.487097 
L 282.676404 191.525331 
L 281.194819 191.716504 
L 279.713233 191.792973 
L 278.27944 191.792973 
L 276.797855 191.984145 
L 275.364062 192.022379 
L 273.882476 192.060614 
L 272.400891 192.213552 
L 270.967098 192.328255 
L 269.485512 191.754738 
L 268.05172 191.831207 
L 266.570134 192.022379 
L 265.231928 192.022379 
L 263.750342 192.251786 
L 262.268756 192.404724 
L 260.834964 192.672365 
L 259.353378 193.016476 
L 257.919585 193.322351 
L 256.438 193.39882 
L 254.956414 193.666462 
L 253.522621 193.895868 
L 252.041036 194.239979 
L 250.607243 194.392916 
L 249.125658 194.584089 
L 247.787451 194.622323 
L 246.305865 194.622323 
L 244.82428 194.813496 
L 243.390487 195.272309 
L 241.908901 195.310544 
L 240.475109 195.539951 
L 238.993523 196.189937 
L 237.511938 196.266405 
L 236.078145 196.725219 
L 234.596559 197.031095 
L 233.162767 198.063426 
L 231.681181 198.139894 
L 230.342975 198.254598 
L 228.861389 198.522239 
L 227.379803 198.598708 
L 225.946011 198.828115 
L 224.464425 199.019287 
L 223.030632 199.363397 
L 221.549047 199.55457 
L 220.067461 199.669273 
L 218.633668 199.89868 
L 217.152083 199.936915 
L 215.71829 200.051618 
L 214.236704 200.204556 
L 212.850705 200.204556 
L 211.369119 200.281025 
L 209.887534 200.319259 
L 208.453741 200.357494 
L 206.972155 200.395728 
L 205.538363 200.433963 
L 204.056777 200.548666 
L 201.236985 201.275121 
L 200.042158 201.466293 
L 199.038503 201.504528 
L 197.843676 201.389824 
L 196.887814 201.389824 
L 195.549608 201.504528 
L 192.825402 201.619231 
L 190.196782 202.230983 
L 189.384299 203.14861 
L 188.093886 202.995672 
L 186.75568 202.957438 
L 185.130715 203.645658 
L 184.12706 203.645658 
L 183.123405 203.416251 
L 178.726441 203.913299 
L 177.818372 203.989768 
L 173.13465 204.639754 
L 170.792789 204.716223 
L 170.028099 204.563285 
L 169.072238 204.677989 
L 168.450928 204.869161 
L 167.925204 204.907395 
L 164.77086 205.022099 
L 161.377551 205.098568 
L 159.657 205.28974 
L 157.984242 207.316167 
L 154.973277 207.239698 
L 154.208588 207.277933 
L 152.965968 207.698512 
L 150.958658 208.769077 
L 147.852107 208.998484 
L 146.705073 209.380828 
L 144.02866 209.64847 
L 142.594868 210.451394 
L 140.92211 210.986676 
L 139.010386 211.407255 
L 137.624387 211.44549 
L 136.572939 211.521959 
L 135.856043 211.560193 
L 134.804595 211.598428 
L 133.80094 212.286648 
L 133.131837 212.630758 
L 132.940664 212.630758 
L 132.223768 212.630758 
L 131.267906 212.860165 
L 129.9297 212.630758 
L 129.451769 212.821931 
L 128.926045 212.8984 
L 128.161356 213.013103 
L 127.444459 213.013103 
L 126.775356 213.318979 
L 125.819494 214.007199 
L 125.484943 213.968965 
L 124.576874 214.313075 
L 123.42984 214.389544 
L 122.569565 214.466013 
L 122.091634 214.542482 
L 121.279151 214.657185 
L 120.753427 214.886592 
L 119.940945 215.077764 
L 119.271842 215.001295 
L 118.459359 215.077764 
L 115.305015 215.345406 
L 115.06605 215.307171 
L 113.154326 215.613047 
L 108.996328 213.777792 
L 106.750053 216.49244 
L 98.051711 220.048245 
L 84.048337 223.374644 
L 65.026688 227.656905 
L 48.63366 222.724658 
L 40.652214 222.112907 
L 32.575183 222.91583 
z
" clip-path="url(#p1d108a47f3)" style="fill: #fb363b"/>
   </g>
   <g id="PolyCollection_2">
    <path d="M 32.575183 144.305762 
L 32.575183 222.91583 
L 40.652214 222.112907 
L 48.63366 222.724658 
L 65.026688 227.656905 
L 84.048337 223.374644 
L 98.051711 220.048245 
L 106.750053 216.49244 
L 108.996328 213.777792 
L 113.154326 215.613047 
L 115.06605 215.307171 
L 115.305015 215.345406 
L 118.459359 215.077764 
L 119.271842 215.001295 
L 119.940945 215.077764 
L 120.753427 214.886592 
L 121.279151 214.657185 
L 122.091634 214.542482 
L 122.569565 214.466013 
L 123.42984 214.389544 
L 124.576874 214.313075 
L 125.484943 213.968965 
L 125.819494 214.007199 
L 126.775356 213.318979 
L 127.444459 213.013103 
L 128.161356 213.013103 
L 128.926045 212.8984 
L 129.451769 212.821931 
L 129.9297 212.630758 
L 131.267906 212.860165 
L 132.223768 212.630758 
L 132.940664 212.630758 
L 133.131837 212.630758 
L 133.80094 212.286648 
L 134.804595 211.598428 
L 135.856043 211.560193 
L 136.572939 211.521959 
L 137.624387 211.44549 
L 139.010386 211.407255 
L 140.92211 210.986676 
L 142.594868 210.451394 
L 144.02866 209.64847 
L 146.705073 209.380828 
L 147.852107 208.998484 
L 150.958658 208.769077 
L 152.965968 207.698512 
L 154.208588 207.277933 
L 154.973277 207.239698 
L 157.984242 207.316167 
L 159.657 205.28974 
L 161.377551 205.098568 
L 164.77086 205.022099 
L 167.925204 204.907395 
L 168.450928 204.869161 
L 169.072238 204.677989 
L 170.028099 204.563285 
L 170.792789 204.716223 
L 173.13465 204.639754 
L 177.818372 203.989768 
L 178.726441 203.913299 
L 183.123405 203.416251 
L 184.12706 203.645658 
L 185.130715 203.645658 
L 186.75568 202.957438 
L 188.093886 202.995672 
L 189.384299 203.14861 
L 190.196782 202.230983 
L 192.825402 201.619231 
L 195.549608 201.504528 
L 196.887814 201.389824 
L 197.843676 201.389824 
L 199.038503 201.504528 
L 200.042158 201.466293 
L 201.236985 201.275121 
L 204.056777 200.548666 
L 205.538363 200.433963 
L 206.972155 200.395728 
L 208.453741 200.357494 
L 209.887534 200.319259 
L 211.369119 200.281025 
L 212.850705 200.204556 
L 214.236704 200.204556 
L 215.71829 200.051618 
L 217.152083 199.936915 
L 218.633668 199.89868 
L 220.067461 199.669273 
L 221.549047 199.55457 
L 223.030632 199.363397 
L 224.464425 199.019287 
L 225.946011 198.828115 
L 227.379803 198.598708 
L 228.861389 198.522239 
L 230.342975 198.254598 
L 231.681181 198.139894 
L 233.162767 198.063426 
L 234.596559 197.031095 
L 236.078145 196.725219 
L 237.511938 196.266405 
L 238.993523 196.189937 
L 240.475109 195.539951 
L 241.908901 195.310544 
L 243.390487 195.272309 
L 244.82428 194.813496 
L 246.305865 194.622323 
L 247.787451 194.622323 
L 249.125658 194.584089 
L 250.607243 194.392916 
L 252.041036 194.239979 
L 253.522621 193.895868 
L 254.956414 193.666462 
L 256.438 193.39882 
L 257.919585 193.322351 
L 259.353378 193.016476 
L 260.834964 192.672365 
L 262.268756 192.404724 
L 263.750342 192.251786 
L 265.231928 192.022379 
L 266.570134 192.022379 
L 268.05172 191.831207 
L 269.485512 191.754738 
L 270.967098 192.328255 
L 272.400891 192.213552 
L 273.882476 192.060614 
L 275.364062 192.022379 
L 276.797855 191.984145 
L 278.27944 191.792973 
L 279.713233 191.792973 
L 281.194819 191.716504 
L 282.676404 191.525331 
L 284.062404 191.487097 
L 285.543989 191.410628 
L 286.977782 191.028283 
L 288.459368 191.028283 
L 289.89316 190.837111 
L 291.374746 190.416532 
L 292.856332 190.301828 
L 294.290124 190.225359 
L 295.77171 190.034187 
L 297.205503 189.919484 
L 298.687088 189.193029 
L 300.168674 189.11656 
L 301.50688 189.078325 
L 302.988466 188.810684 
L 304.422259 188.734215 
L 305.903844 188.695981 
L 307.337637 188.77245 
L 308.819223 189.384201 
L 310.300808 188.657746 
L 311.734601 188.390105 
L 313.216186 186.707788 
L 314.649979 186.55485 
L 316.131565 186.401912 
L 317.61315 186.363678 
L 318.951357 186.21074 
L 320.432943 186.057802 
L 321.866735 185.751926 
L 323.348321 185.598989 
L 324.782113 185.369582 
L 326.263699 185.254878 
L 327.745285 185.140175 
L 329.179077 185.140175 
L 330.660663 185.10194 
L 332.094456 185.025472 
L 333.576041 184.987237 
L 335.057627 184.949003 
L 336.395833 184.949003 
L 337.877419 184.910768 
L 339.311212 184.834299 
L 340.792797 184.75783 
L 342.22659 184.643127 
L 343.708176 184.41372 
L 345.189761 184.260782 
L 346.623554 184.184313 
L 348.10514 184.06961 
L 349.538932 184.06961 
L 351.020518 184.06961 
L 352.502104 183.993141 
L 353.888103 183.916672 
L 355.369689 183.801969 
L 356.803481 183.457858 
L 358.285067 183.381389 
L 359.71886 183.381389 
L 361.200445 183.30492 
L 362.682031 183.266686 
L 364.115824 183.113748 
L 365.597409 183.037279 
L 367.031202 182.884341 
L 368.512788 182.846107 
L 369.994373 182.425528 
L 371.33258 182.310824 
L 372.814165 181.813776 
L 374.247958 181.660838 
L 375.729544 181.660838 
L 377.163336 181.393197 
L 378.644922 181.202025 
L 380.126508 181.240259 
L 381.5603 181.010852 
L 383.041886 180.704977 
L 384.475678 180.513804 
L 385.957264 180.322632 
L 387.43885 180.322632 
L 388.777056 180.284397 
L 390.258642 180.322632 
L 391.692434 180.399101 
L 393.17402 180.322632 
L 394.607813 180.360866 
L 396.089398 180.360866 
L 397.570984 180.322632 
L 399.004777 180.322632 
L 400.486362 180.093225 
L 401.920155 179.978522 
L 403.401741 179.863818 
L 404.883326 179.902053 
L 406.221533 179.328536 
L 407.703118 178.984425 
L 409.136911 178.984425 
L 410.618497 178.869722 
L 412.052289 178.640315 
L 413.533875 178.181502 
L 415.015461 178.066798 
L 416.449253 178.028564 
L 417.930839 177.91386 
L 419.364632 177.684453 
L 420.846217 177.646219 
L 422.327803 177.531516 
L 423.713802 175.887433 
L 425.195388 175.810964 
L 426.629181 175.696261 
L 428.110766 175.581558 
L 429.544559 175.046275 
L 431.026145 174.205117 
L 432.50773 174.205117 
L 433.941523 173.97571 
L 435.423109 173.97571 
L 436.856901 173.746303 
L 438.338487 172.981614 
L 439.820073 170.802249 
L 441.158279 169.808153 
L 442.639865 169.769918 
L 444.073657 169.464043 
L 445.555243 169.464043 
L 446.989036 169.425808 
L 448.470621 169.349339 
L 449.952207 169.464043 
L 449.952207 104.42721 
L 449.952207 104.42721 
L 448.470621 103.815459 
L 446.989036 103.73899 
L 445.555243 103.547818 
L 444.073657 103.471349 
L 442.639865 103.433114 
L 441.158279 103.203707 
L 439.820073 103.241942 
L 438.338487 103.203707 
L 436.856901 103.73899 
L 435.423109 103.815459 
L 433.941523 103.930162 
L 432.50773 103.968397 
L 431.026145 104.197804 
L 429.544559 104.0831 
L 428.110766 104.044866 
L 426.629181 104.197804 
L 425.195388 104.274273 
L 423.713802 104.236038 
L 422.327803 104.503679 
L 420.846217 104.771321 
L 419.364632 104.771321 
L 417.930839 104.886024 
L 416.449253 105.038962 
L 415.015461 105.115431 
L 413.533875 105.115431 
L 412.052289 105.383072 
L 410.618497 105.612479 
L 409.136911 105.727182 
L 407.703118 105.727182 
L 406.221533 105.765417 
L 404.883326 105.918355 
L 403.401741 106.033058 
L 401.920155 106.109527 
L 400.486362 106.109527 
L 399.004777 106.147762 
L 397.570984 106.033058 
L 396.089398 106.071293 
L 394.607813 106.071293 
L 393.17402 106.262465 
L 391.692434 106.224231 
L 390.258642 106.224231 
L 388.777056 106.262465 
L 387.43885 106.338934 
L 385.957264 106.338934 
L 384.475678 106.453637 
L 383.041886 106.415403 
L 381.5603 106.530106 
L 380.126508 106.568341 
L 378.644922 106.606575 
L 377.163336 106.64481 
L 375.729544 106.683044 
L 374.247958 106.64481 
L 372.814165 106.759513 
L 371.33258 106.950685 
L 369.994373 107.103623 
L 368.512788 107.141858 
L 367.031202 107.141858 
L 365.597409 107.218327 
L 364.115824 107.256561 
L 362.682031 107.33303 
L 361.200445 107.33303 
L 359.71886 107.371265 
L 358.285067 107.409499 
L 356.803481 107.294796 
L 355.369689 107.256561 
L 353.888103 107.294796 
L 352.502104 107.218327 
L 351.020518 107.218327 
L 349.538932 107.218327 
L 348.10514 107.218327 
L 346.623554 107.218327 
L 345.189761 107.256561 
L 343.708176 107.218327 
L 342.22659 107.256561 
L 340.792797 107.256561 
L 339.311212 107.141858 
L 337.877419 107.141858 
L 336.395833 107.180092 
L 335.057627 107.180092 
L 333.576041 107.256561 
L 332.094456 107.256561 
L 330.660663 107.33303 
L 329.179077 107.33303 
L 327.745285 107.33303 
L 326.263699 107.371265 
L 324.782113 107.371265 
L 323.348321 107.371265 
L 321.866735 107.409499 
L 320.432943 107.447734 
L 318.951357 107.753609 
L 317.61315 107.868313 
L 316.131565 107.791844 
L 314.649979 107.868313 
L 313.216186 107.983016 
L 311.734601 108.021251 
L 310.300808 108.556533 
L 308.819223 108.862409 
L 307.337637 110.965305 
L 305.903844 112.150573 
L 304.422259 112.571152 
L 302.988466 112.571152 
L 301.50688 112.877028 
L 300.168674 112.800559 
L 298.687088 112.03587 
L 297.205503 112.227042 
L 295.77171 112.647621 
L 294.290124 112.647621 
L 292.856332 112.532918 
L 291.374746 112.685856 
L 289.89316 112.72409 
L 288.459368 112.72409 
L 286.977782 112.762325 
L 285.543989 112.838794 
L 284.062404 112.838794 
L 282.676404 112.877028 
L 281.194819 112.877028 
L 279.713233 112.991732 
L 278.27944 113.029966 
L 276.797855 113.068201 
L 275.364062 113.068201 
L 273.882476 113.029966 
L 272.400891 113.068201 
L 270.967098 113.029966 
L 269.485512 113.641718 
L 268.05172 113.603483 
L 266.570134 113.679952 
L 265.231928 113.756421 
L 263.750342 113.871124 
L 262.268756 113.83289 
L 260.834964 114.100531 
L 259.353378 114.215235 
L 257.919585 114.368172 
L 256.438 114.559345 
L 254.956414 114.597579 
L 253.522621 114.52111 
L 252.041036 114.597579 
L 250.607243 114.635814 
L 249.125658 114.635814 
L 247.787451 114.635814 
L 246.305865 114.635814 
L 244.82428 114.788752 
L 243.390487 114.865221 
L 241.908901 115.094627 
L 240.475109 115.132862 
L 238.993523 115.362269 
L 237.511938 115.438738 
L 236.078145 115.668144 
L 234.596559 115.782848 
L 233.162767 115.935786 
L 231.681181 115.97402 
L 230.342975 116.012255 
L 228.861389 116.165193 
L 227.379803 116.165193 
L 225.946011 116.356365 
L 224.464425 116.624006 
L 223.030632 116.776944 
L 221.549047 116.929882 
L 220.067461 117.121054 
L 218.633668 117.197523 
L 217.152083 117.503399 
L 215.71829 117.503399 
L 214.236704 117.541633 
L 212.850705 117.541633 
L 211.369119 117.541633 
L 209.887534 117.541633 
L 208.453741 117.541633 
L 206.972155 117.579868 
L 205.538363 117.732806 
L 204.056777 117.809275 
L 201.236985 118.268088 
L 200.042158 118.841605 
L 199.038503 119.109247 
L 197.843676 118.573964 
L 196.887814 118.87984 
L 195.549608 118.994543 
L 192.825402 119.147481 
L 190.196782 119.147481 
L 189.384299 119.300419 
L 188.093886 119.797467 
L 186.75568 119.759233 
L 185.130715 120.638625 
L 184.12706 120.638625 
L 183.123405 121.059205 
L 178.726441 121.326846 
L 177.818372 121.403315 
L 173.13465 122.47388 
L 170.792789 123.429742 
L 170.028099 123.467976 
L 169.072238 123.467976 
L 168.450928 123.467976 
L 167.925204 123.506211 
L 164.77086 123.085631 
L 161.377551 123.58268 
L 159.657 123.773852 
L 157.984242 123.965024 
L 154.973277 124.079728 
L 154.208588 124.156197 
L 152.965968 124.347369 
L 150.958658 124.653245 
L 147.852107 124.500307 
L 146.705073 124.806183 
L 144.02866 124.767948 
L 142.594868 124.691479 
L 140.92211 125.035589 
L 139.010386 124.95912 
L 137.624387 124.844417 
L 136.572939 125.112058 
L 135.856043 125.150293 
L 134.804595 124.423838 
L 133.80094 124.462072 
L 133.131837 124.61501 
L 132.940664 124.61501 
L 132.223768 124.576776 
L 131.267906 125.073824 
L 129.9297 124.538541 
L 129.451769 124.538541 
L 128.926045 124.576776 
L 128.161356 124.61501 
L 127.444459 124.423838 
L 126.775356 124.844417 
L 125.819494 124.95912 
L 125.484943 124.729714 
L 124.576874 124.882651 
L 123.42984 124.844417 
L 122.569565 125.341465 
L 122.091634 125.264996 
L 121.279151 125.264996 
L 120.753427 123.544445 
L 119.940945 123.92679 
L 119.271842 122.970928 
L 118.459359 122.741521 
L 115.305015 123.009163 
L 115.06605 122.856225 
L 113.154326 123.123866 
L 108.996328 124.844417 
L 106.750053 125.685575 
L 98.051711 127.712002 
L 84.048337 130.617822 
L 65.026688 134.326565 
L 48.63366 140.252908 
L 40.652214 143.999886 
L 32.575183 144.305762 
z
" clip-path="url(#p1d108a47f3)" style="fill: #fdc92c"/>
   </g>
   <g id="PolyCollection_3">
    <path d="M 32.575183 114.177 
L 32.575183 144.305762 
L 40.652214 143.999886 
L 48.63366 140.252908 
L 65.026688 134.326565 
L 84.048337 130.617822 
L 98.051711 127.712002 
L 106.750053 125.685575 
L 108.996328 124.844417 
L 113.154326 123.123866 
L 115.06605 122.856225 
L 115.305015 123.009163 
L 118.459359 122.741521 
L 119.271842 122.970928 
L 119.940945 123.92679 
L 120.753427 123.544445 
L 121.279151 125.264996 
L 122.091634 125.264996 
L 122.569565 125.341465 
L 123.42984 124.844417 
L 124.576874 124.882651 
L 125.484943 124.729714 
L 125.819494 124.95912 
L 126.775356 124.844417 
L 127.444459 124.423838 
L 128.161356 124.61501 
L 128.926045 124.576776 
L 129.451769 124.538541 
L 129.9297 124.538541 
L 131.267906 125.073824 
L 132.223768 124.576776 
L 132.940664 124.61501 
L 133.131837 124.61501 
L 133.80094 124.462072 
L 134.804595 124.423838 
L 135.856043 125.150293 
L 136.572939 125.112058 
L 137.624387 124.844417 
L 139.010386 124.95912 
L 140.92211 125.035589 
L 142.594868 124.691479 
L 144.02866 124.767948 
L 146.705073 124.806183 
L 147.852107 124.500307 
L 150.958658 124.653245 
L 152.965968 124.347369 
L 154.208588 124.156197 
L 154.973277 124.079728 
L 157.984242 123.965024 
L 159.657 123.773852 
L 161.377551 123.58268 
L 164.77086 123.085631 
L 167.925204 123.506211 
L 168.450928 123.467976 
L 169.072238 123.467976 
L 170.028099 123.467976 
L 170.792789 123.429742 
L 173.13465 122.47388 
L 177.818372 121.403315 
L 178.726441 121.326846 
L 183.123405 121.059205 
L 184.12706 120.638625 
L 185.130715 120.638625 
L 186.75568 119.759233 
L 188.093886 119.797467 
L 189.384299 119.300419 
L 190.196782 119.147481 
L 192.825402 119.147481 
L 195.549608 118.994543 
L 196.887814 118.87984 
L 197.843676 118.573964 
L 199.038503 119.109247 
L 200.042158 118.841605 
L 201.236985 118.268088 
L 204.056777 117.809275 
L 205.538363 117.732806 
L 206.972155 117.579868 
L 208.453741 117.541633 
L 209.887534 117.541633 
L 211.369119 117.541633 
L 212.850705 117.541633 
L 214.236704 117.541633 
L 215.71829 117.503399 
L 217.152083 117.503399 
L 218.633668 117.197523 
L 220.067461 117.121054 
L 221.549047 116.929882 
L 223.030632 116.776944 
L 224.464425 116.624006 
L 225.946011 116.356365 
L 227.379803 116.165193 
L 228.861389 116.165193 
L 230.342975 116.012255 
L 231.681181 115.97402 
L 233.162767 115.935786 
L 234.596559 115.782848 
L 236.078145 115.668144 
L 237.511938 115.438738 
L 238.993523 115.362269 
L 240.475109 115.132862 
L 241.908901 115.094627 
L 243.390487 114.865221 
L 244.82428 114.788752 
L 246.305865 114.635814 
L 247.787451 114.635814 
L 249.125658 114.635814 
L 250.607243 114.635814 
L 252.041036 114.597579 
L 253.522621 114.52111 
L 254.956414 114.597579 
L 256.438 114.559345 
L 257.919585 114.368172 
L 259.353378 114.215235 
L 260.834964 114.100531 
L 262.268756 113.83289 
L 263.750342 113.871124 
L 265.231928 113.756421 
L 266.570134 113.679952 
L 268.05172 113.603483 
L 269.485512 113.641718 
L 270.967098 113.029966 
L 272.400891 113.068201 
L 273.882476 113.029966 
L 275.364062 113.068201 
L 276.797855 113.068201 
L 278.27944 113.029966 
L 279.713233 112.991732 
L 281.194819 112.877028 
L 282.676404 112.877028 
L 284.062404 112.838794 
L 285.543989 112.838794 
L 286.977782 112.762325 
L 288.459368 112.72409 
L 289.89316 112.72409 
L 291.374746 112.685856 
L 292.856332 112.532918 
L 294.290124 112.647621 
L 295.77171 112.647621 
L 297.205503 112.227042 
L 298.687088 112.03587 
L 300.168674 112.800559 
L 301.50688 112.877028 
L 302.988466 112.571152 
L 304.422259 112.571152 
L 305.903844 112.150573 
L 307.337637 110.965305 
L 308.819223 108.862409 
L 310.300808 108.556533 
L 311.734601 108.021251 
L 313.216186 107.983016 
L 314.649979 107.868313 
L 316.131565 107.791844 
L 317.61315 107.868313 
L 318.951357 107.753609 
L 320.432943 107.447734 
L 321.866735 107.409499 
L 323.348321 107.371265 
L 324.782113 107.371265 
L 326.263699 107.371265 
L 327.745285 107.33303 
L 329.179077 107.33303 
L 330.660663 107.33303 
L 332.094456 107.256561 
L 333.576041 107.256561 
L 335.057627 107.180092 
L 336.395833 107.180092 
L 337.877419 107.141858 
L 339.311212 107.141858 
L 340.792797 107.256561 
L 342.22659 107.256561 
L 343.708176 107.218327 
L 345.189761 107.256561 
L 346.623554 107.218327 
L 348.10514 107.218327 
L 349.538932 107.218327 
L 351.020518 107.218327 
L 352.502104 107.218327 
L 353.888103 107.294796 
L 355.369689 107.256561 
L 356.803481 107.294796 
L 358.285067 107.409499 
L 359.71886 107.371265 
L 361.200445 107.33303 
L 362.682031 107.33303 
L 364.115824 107.256561 
L 365.597409 107.218327 
L 367.031202 107.141858 
L 368.512788 107.141858 
L 369.994373 107.103623 
L 371.33258 106.950685 
L 372.814165 106.759513 
L 374.247958 106.64481 
L 375.729544 106.683044 
L 377.163336 106.64481 
L 378.644922 106.606575 
L 380.126508 106.568341 
L 381.5603 106.530106 
L 383.041886 106.415403 
L 384.475678 106.453637 
L 385.957264 106.338934 
L 387.43885 106.338934 
L 388.777056 106.262465 
L 390.258642 106.224231 
L 391.692434 106.224231 
L 393.17402 106.262465 
L 394.607813 106.071293 
L 396.089398 106.071293 
L 397.570984 106.033058 
L 399.004777 106.147762 
L 400.486362 106.109527 
L 401.920155 106.109527 
L 403.401741 106.033058 
L 404.883326 105.918355 
L 406.221533 105.765417 
L 407.703118 105.727182 
L 409.136911 105.727182 
L 410.618497 105.612479 
L 412.052289 105.383072 
L 413.533875 105.115431 
L 415.015461 105.115431 
L 416.449253 105.038962 
L 417.930839 104.886024 
L 419.364632 104.771321 
L 420.846217 104.771321 
L 422.327803 104.503679 
L 423.713802 104.236038 
L 425.195388 104.274273 
L 426.629181 104.197804 
L 428.110766 104.044866 
L 429.544559 104.0831 
L 431.026145 104.197804 
L 432.50773 103.968397 
L 433.941523 103.930162 
L 435.423109 103.815459 
L 436.856901 103.73899 
L 438.338487 103.203707 
L 439.820073 103.241942 
L 441.158279 103.203707 
L 442.639865 103.433114 
L 444.073657 103.471349 
L 445.555243 103.547818 
L 446.989036 103.73899 
L 448.470621 103.815459 
L 449.952207 104.42721 
L 449.952207 90.586333 
L 449.952207 90.586333 
L 448.470621 90.586333 
L 446.989036 90.586333 
L 445.555243 90.586333 
L 444.073657 90.586333 
L 442.639865 90.548098 
L 441.158279 90.548098 
L 439.820073 90.548098 
L 438.338487 90.548098 
L 436.856901 90.548098 
L 435.423109 90.548098 
L 433.941523 90.548098 
L 432.50773 90.509864 
L 431.026145 90.853974 
L 429.544559 91.083381 
L 428.110766 91.083381 
L 426.629181 91.121615 
L 425.195388 91.121615 
L 423.713802 91.121615 
L 422.327803 91.15985 
L 420.846217 91.15985 
L 419.364632 91.15985 
L 417.930839 91.198084 
L 416.449253 91.198084 
L 415.015461 91.198084 
L 413.533875 91.198084 
L 412.052289 91.274553 
L 410.618497 91.274553 
L 409.136911 91.274553 
L 407.703118 91.274553 
L 406.221533 91.274553 
L 404.883326 91.312788 
L 403.401741 91.312788 
L 401.920155 91.389256 
L 400.486362 91.389256 
L 399.004777 91.427491 
L 397.570984 91.427491 
L 396.089398 91.427491 
L 394.607813 91.427491 
L 393.17402 91.50396 
L 391.692434 91.580429 
L 390.258642 91.580429 
L 388.777056 91.580429 
L 387.43885 91.580429 
L 385.957264 91.580429 
L 384.475678 91.618663 
L 383.041886 91.580429 
L 381.5603 91.656898 
L 380.126508 91.656898 
L 378.644922 91.656898 
L 377.163336 91.695132 
L 375.729544 91.695132 
L 374.247958 91.695132 
L 372.814165 91.733367 
L 371.33258 91.771601 
L 369.994373 91.809836 
L 368.512788 91.809836 
L 367.031202 91.771601 
L 365.597409 91.771601 
L 364.115824 91.771601 
L 362.682031 91.733367 
L 361.200445 91.733367 
L 359.71886 91.771601 
L 358.285067 91.771601 
L 356.803481 91.695132 
L 355.369689 91.656898 
L 353.888103 91.656898 
L 352.502104 91.695132 
L 351.020518 91.695132 
L 349.538932 91.695132 
L 348.10514 91.695132 
L 346.623554 91.695132 
L 345.189761 91.695132 
L 343.708176 91.695132 
L 342.22659 91.695132 
L 340.792797 91.695132 
L 339.311212 91.618663 
L 337.877419 91.618663 
L 336.395833 91.618663 
L 335.057627 91.618663 
L 333.576041 91.580429 
L 332.094456 91.580429 
L 330.660663 91.656898 
L 329.179077 91.656898 
L 327.745285 91.656898 
L 326.263699 91.695132 
L 324.782113 91.695132 
L 323.348321 91.695132 
L 321.866735 91.733367 
L 320.432943 91.771601 
L 318.951357 91.84807 
L 317.61315 91.84807 
L 316.131565 91.84807 
L 314.649979 92.001008 
L 313.216186 92.001008 
L 311.734601 92.001008 
L 310.300808 91.886305 
L 308.819223 91.924539 
L 307.337637 92.115711 
L 305.903844 93.033339 
L 304.422259 93.186277 
L 302.988466 93.224511 
L 301.50688 93.262745 
L 300.168674 93.262745 
L 298.687088 93.262745 
L 297.205503 93.262745 
L 295.77171 93.30098 
L 294.290124 93.30098 
L 292.856332 93.339214 
L 291.374746 93.377449 
L 289.89316 93.415683 
L 288.459368 93.415683 
L 286.977782 93.415683 
L 285.543989 93.415683 
L 284.062404 93.415683 
L 282.676404 93.453918 
L 281.194819 93.453918 
L 279.713233 93.492152 
L 278.27944 93.530387 
L 276.797855 93.530387 
L 275.364062 93.530387 
L 273.882476 93.530387 
L 272.400891 93.530387 
L 270.967098 93.530387 
L 269.485512 93.530387 
L 268.05172 93.530387 
L 266.570134 93.606856 
L 265.231928 93.606856 
L 263.750342 93.606856 
L 262.268756 93.64509 
L 260.834964 93.64509 
L 259.353378 93.683325 
L 257.919585 93.836263 
L 256.438 94.75389 
L 254.956414 94.75389 
L 253.522621 94.75389 
L 252.041036 94.830359 
L 250.607243 94.830359 
L 249.125658 94.830359 
L 247.787451 94.830359 
L 246.305865 94.830359 
L 244.82428 94.830359 
L 243.390487 94.906828 
L 241.908901 94.830359 
L 240.475109 94.868593 
L 238.993523 94.945062 
L 237.511938 95.021531 
L 236.078145 95.212703 
L 234.596559 95.250938 
L 233.162767 95.250938 
L 231.681181 95.250938 
L 230.342975 95.250938 
L 228.861389 95.327407 
L 227.379803 95.327407 
L 225.946011 95.403876 
L 224.464425 95.403876 
L 223.030632 95.289172 
L 221.549047 95.365641 
L 220.067461 95.365641 
L 218.633668 95.365641 
L 217.152083 95.403876 
L 215.71829 95.403876 
L 214.236704 95.403876 
L 212.850705 95.44211 
L 211.369119 95.44211 
L 209.887534 95.480345 
L 208.453741 95.44211 
L 206.972155 95.44211 
L 205.538363 95.518579 
L 204.056777 95.556814 
L 201.236985 95.824455 
L 200.042158 96.397972 
L 199.038503 96.665613 
L 197.843676 96.053862 
L 196.887814 96.55091 
L 195.549608 96.589144 
L 192.825402 97.468537 
L 190.196782 97.468537 
L 189.384299 97.430303 
L 188.093886 97.58324 
L 186.75568 97.58324 
L 185.130715 97.659709 
L 184.12706 97.659709 
L 183.123405 97.697944 
L 178.726441 97.850882 
L 177.818372 97.850882 
L 173.13465 98.844978 
L 170.792789 98.959681 
L 170.028099 98.997916 
L 169.072238 99.112619 
L 168.450928 99.112619 
L 167.925204 99.112619 
L 164.77086 99.112619 
L 161.377551 99.342026 
L 159.657 99.456729 
L 157.984242 99.494964 
L 154.973277 99.571433 
L 154.208588 99.686136 
L 152.965968 99.877309 
L 150.958658 100.106715 
L 147.852107 100.259653 
L 146.705073 100.871405 
L 144.02866 100.909639 
L 142.594868 101.177281 
L 140.92211 101.483156 
L 139.010386 101.559625 
L 137.624387 101.559625 
L 136.572939 101.559625 
L 135.856043 101.559625 
L 134.804595 101.712563 
L 133.80094 101.865501 
L 133.131837 101.980204 
L 132.940664 101.980204 
L 132.223768 101.94197 
L 131.267906 102.477253 
L 129.9297 102.018439 
L 129.451769 102.018439 
L 128.926045 102.094908 
L 128.161356 102.094908 
L 127.444459 102.094908 
L 126.775356 102.668425 
L 125.819494 102.668425 
L 125.484943 102.209611 
L 124.576874 102.783128 
L 123.42984 103.853693 
L 122.569565 104.733086 
L 122.091634 104.771321 
L 121.279151 104.771321 
L 120.753427 104.809555 
L 119.940945 105.383072 
L 119.271842 104.84779 
L 118.459359 104.84779 
L 115.305015 105.115431 
L 115.06605 105.153665 
L 113.154326 105.1919 
L 108.996328 102.668425 
L 106.750053 105.344838 
L 98.051711 107.180092 
L 84.048337 109.053581 
L 65.026688 110.353553 
L 48.63366 112.303511 
L 40.652214 114.597579 
L 32.575183 114.177 
z
" clip-path="url(#p1d108a47f3)" style="fill: #aeaeae"/>
   </g>
   <g id="PolyCollection_4">
    <path d="M 32.575183 90.968677 
L 32.575183 114.177 
L 40.652214 114.597579 
L 48.63366 112.303511 
L 65.026688 110.353553 
L 84.048337 109.053581 
L 98.051711 107.180092 
L 106.750053 105.344838 
L 108.996328 102.668425 
L 113.154326 105.1919 
L 115.06605 105.153665 
L 115.305015 105.115431 
L 118.459359 104.84779 
L 119.271842 104.84779 
L 119.940945 105.383072 
L 120.753427 104.809555 
L 121.279151 104.771321 
L 122.091634 104.771321 
L 122.569565 104.733086 
L 123.42984 103.853693 
L 124.576874 102.783128 
L 125.484943 102.209611 
L 125.819494 102.668425 
L 126.775356 102.668425 
L 127.444459 102.094908 
L 128.161356 102.094908 
L 128.926045 102.094908 
L 129.451769 102.018439 
L 129.9297 102.018439 
L 131.267906 102.477253 
L 132.223768 101.94197 
L 132.940664 101.980204 
L 133.131837 101.980204 
L 133.80094 101.865501 
L 134.804595 101.712563 
L 135.856043 101.559625 
L 136.572939 101.559625 
L 137.624387 101.559625 
L 139.010386 101.559625 
L 140.92211 101.483156 
L 142.594868 101.177281 
L 144.02866 100.909639 
L 146.705073 100.871405 
L 147.852107 100.259653 
L 150.958658 100.106715 
L 152.965968 99.877309 
L 154.208588 99.686136 
L 154.973277 99.571433 
L 157.984242 99.494964 
L 159.657 99.456729 
L 161.377551 99.342026 
L 164.77086 99.112619 
L 167.925204 99.112619 
L 168.450928 99.112619 
L 169.072238 99.112619 
L 170.028099 98.997916 
L 170.792789 98.959681 
L 173.13465 98.844978 
L 177.818372 97.850882 
L 178.726441 97.850882 
L 183.123405 97.697944 
L 184.12706 97.659709 
L 185.130715 97.659709 
L 186.75568 97.58324 
L 188.093886 97.58324 
L 189.384299 97.430303 
L 190.196782 97.468537 
L 192.825402 97.468537 
L 195.549608 96.589144 
L 196.887814 96.55091 
L 197.843676 96.053862 
L 199.038503 96.665613 
L 200.042158 96.397972 
L 201.236985 95.824455 
L 204.056777 95.556814 
L 205.538363 95.518579 
L 206.972155 95.44211 
L 208.453741 95.44211 
L 209.887534 95.480345 
L 211.369119 95.44211 
L 212.850705 95.44211 
L 214.236704 95.403876 
L 215.71829 95.403876 
L 217.152083 95.403876 
L 218.633668 95.365641 
L 220.067461 95.365641 
L 221.549047 95.365641 
L 223.030632 95.289172 
L 224.464425 95.403876 
L 225.946011 95.403876 
L 227.379803 95.327407 
L 228.861389 95.327407 
L 230.342975 95.250938 
L 231.681181 95.250938 
L 233.162767 95.250938 
L 234.596559 95.250938 
L 236.078145 95.212703 
L 237.511938 95.021531 
L 238.993523 94.945062 
L 240.475109 94.868593 
L 241.908901 94.830359 
L 243.390487 94.906828 
L 244.82428 94.830359 
L 246.305865 94.830359 
L 247.787451 94.830359 
L 249.125658 94.830359 
L 250.607243 94.830359 
L 252.041036 94.830359 
L 253.522621 94.75389 
L 254.956414 94.75389 
L 256.438 94.75389 
L 257.919585 93.836263 
L 259.353378 93.683325 
L 260.834964 93.64509 
L 262.268756 93.64509 
L 263.750342 93.606856 
L 265.231928 93.606856 
L 266.570134 93.606856 
L 268.05172 93.530387 
L 269.485512 93.530387 
L 270.967098 93.530387 
L 272.400891 93.530387 
L 273.882476 93.530387 
L 275.364062 93.530387 
L 276.797855 93.530387 
L 278.27944 93.530387 
L 279.713233 93.492152 
L 281.194819 93.453918 
L 282.676404 93.453918 
L 284.062404 93.415683 
L 285.543989 93.415683 
L 286.977782 93.415683 
L 288.459368 93.415683 
L 289.89316 93.415683 
L 291.374746 93.377449 
L 292.856332 93.339214 
L 294.290124 93.30098 
L 295.77171 93.30098 
L 297.205503 93.262745 
L 298.687088 93.262745 
L 300.168674 93.262745 
L 301.50688 93.262745 
L 302.988466 93.224511 
L 304.422259 93.186277 
L 305.903844 93.033339 
L 307.337637 92.115711 
L 308.819223 91.924539 
L 310.300808 91.886305 
L 311.734601 92.001008 
L 313.216186 92.001008 
L 314.649979 92.001008 
L 316.131565 91.84807 
L 317.61315 91.84807 
L 318.951357 91.84807 
L 320.432943 91.771601 
L 321.866735 91.733367 
L 323.348321 91.695132 
L 324.782113 91.695132 
L 326.263699 91.695132 
L 327.745285 91.656898 
L 329.179077 91.656898 
L 330.660663 91.656898 
L 332.094456 91.580429 
L 333.576041 91.580429 
L 335.057627 91.618663 
L 336.395833 91.618663 
L 337.877419 91.618663 
L 339.311212 91.618663 
L 340.792797 91.695132 
L 342.22659 91.695132 
L 343.708176 91.695132 
L 345.189761 91.695132 
L 346.623554 91.695132 
L 348.10514 91.695132 
L 349.538932 91.695132 
L 351.020518 91.695132 
L 352.502104 91.695132 
L 353.888103 91.656898 
L 355.369689 91.656898 
L 356.803481 91.695132 
L 358.285067 91.771601 
L 359.71886 91.771601 
L 361.200445 91.733367 
L 362.682031 91.733367 
L 364.115824 91.771601 
L 365.597409 91.771601 
L 367.031202 91.771601 
L 368.512788 91.809836 
L 369.994373 91.809836 
L 371.33258 91.771601 
L 372.814165 91.733367 
L 374.247958 91.695132 
L 375.729544 91.695132 
L 377.163336 91.695132 
L 378.644922 91.656898 
L 380.126508 91.656898 
L 381.5603 91.656898 
L 383.041886 91.580429 
L 384.475678 91.618663 
L 385.957264 91.580429 
L 387.43885 91.580429 
L 388.777056 91.580429 
L 390.258642 91.580429 
L 391.692434 91.580429 
L 393.17402 91.50396 
L 394.607813 91.427491 
L 396.089398 91.427491 
L 397.570984 91.427491 
L 399.004777 91.427491 
L 400.486362 91.389256 
L 401.920155 91.389256 
L 403.401741 91.312788 
L 404.883326 91.312788 
L 406.221533 91.274553 
L 407.703118 91.274553 
L 409.136911 91.274553 
L 410.618497 91.274553 
L 412.052289 91.274553 
L 413.533875 91.198084 
L 415.015461 91.198084 
L 416.449253 91.198084 
L 417.930839 91.198084 
L 419.364632 91.15985 
L 420.846217 91.15985 
L 422.327803 91.15985 
L 423.713802 91.121615 
L 425.195388 91.121615 
L 426.629181 91.121615 
L 428.110766 91.083381 
L 429.544559 91.083381 
L 431.026145 90.853974 
L 432.50773 90.509864 
L 433.941523 90.548098 
L 435.423109 90.548098 
L 436.856901 90.548098 
L 438.338487 90.548098 
L 439.820073 90.548098 
L 441.158279 90.548098 
L 442.639865 90.548098 
L 444.073657 90.586333 
L 445.555243 90.586333 
L 446.989036 90.586333 
L 448.470621 90.586333 
L 449.952207 90.586333 
L 449.952207 81.142419 
L 449.952207 81.142419 
L 448.470621 81.142419 
L 446.989036 81.142419 
L 445.555243 81.142419 
L 444.073657 81.142419 
L 442.639865 81.142419 
L 441.158279 81.142419 
L 439.820073 81.142419 
L 438.338487 81.142419 
L 436.856901 81.142419 
L 435.423109 81.142419 
L 433.941523 81.180653 
L 432.50773 81.180653 
L 431.026145 81.180653 
L 429.544559 81.218888 
L 428.110766 81.218888 
L 426.629181 81.218888 
L 425.195388 81.218888 
L 423.713802 81.218888 
L 422.327803 81.218888 
L 420.846217 81.218888 
L 419.364632 81.218888 
L 417.930839 81.218888 
L 416.449253 81.218888 
L 415.015461 81.218888 
L 413.533875 81.218888 
L 412.052289 81.218888 
L 410.618497 81.218888 
L 409.136911 81.218888 
L 407.703118 81.218888 
L 406.221533 81.218888 
L 404.883326 81.41006 
L 403.401741 81.448295 
L 401.920155 81.486529 
L 400.486362 81.486529 
L 399.004777 81.486529 
L 397.570984 81.486529 
L 396.089398 81.486529 
L 394.607813 81.486529 
L 393.17402 81.486529 
L 391.692434 81.486529 
L 390.258642 81.486529 
L 388.777056 81.524763 
L 387.43885 81.486529 
L 385.957264 81.486529 
L 384.475678 81.524763 
L 383.041886 81.257122 
L 381.5603 81.257122 
L 380.126508 80.913012 
L 378.644922 80.913012 
L 377.163336 80.913012 
L 375.729544 80.913012 
L 374.247958 80.913012 
L 372.814165 80.913012 
L 371.33258 80.951246 
L 369.994373 80.951246 
L 368.512788 80.951246 
L 367.031202 80.913012 
L 365.597409 80.913012 
L 364.115824 80.913012 
L 362.682031 80.951246 
L 361.200445 80.951246 
L 359.71886 80.951246 
L 358.285067 80.951246 
L 356.803481 80.874777 
L 355.369689 80.836543 
L 353.888103 80.836543 
L 352.502104 80.836543 
L 351.020518 80.836543 
L 349.538932 80.836543 
L 348.10514 80.836543 
L 346.623554 80.836543 
L 345.189761 80.836543 
L 343.708176 80.836543 
L 342.22659 80.836543 
L 340.792797 80.836543 
L 339.311212 80.760074 
L 337.877419 80.760074 
L 336.395833 80.760074 
L 335.057627 80.760074 
L 333.576041 80.760074 
L 332.094456 80.760074 
L 330.660663 80.760074 
L 329.179077 80.760074 
L 327.745285 80.760074 
L 326.263699 80.72184 
L 324.782113 80.72184 
L 323.348321 80.72184 
L 321.866735 80.72184 
L 320.432943 80.72184 
L 318.951357 80.72184 
L 317.61315 80.72184 
L 316.131565 80.72184 
L 314.649979 80.72184 
L 313.216186 80.72184 
L 311.734601 80.72184 
L 310.300808 80.72184 
L 308.819223 80.72184 
L 307.337637 80.72184 
L 305.903844 80.72184 
L 304.422259 80.72184 
L 302.988466 80.72184 
L 301.50688 80.72184 
L 300.168674 80.72184 
L 298.687088 80.72184 
L 297.205503 80.72184 
L 295.77171 80.72184 
L 294.290124 80.72184 
L 292.856332 80.72184 
L 291.374746 80.72184 
L 289.89316 80.72184 
L 288.459368 80.72184 
L 286.977782 80.72184 
L 285.543989 80.72184 
L 284.062404 81.06595 
L 282.676404 81.104184 
L 281.194819 81.104184 
L 279.713233 81.104184 
L 278.27944 81.257122 
L 276.797855 81.257122 
L 275.364062 81.257122 
L 273.882476 81.257122 
L 272.400891 81.257122 
L 270.967098 81.257122 
L 269.485512 81.257122 
L 268.05172 81.257122 
L 266.570134 81.257122 
L 265.231928 81.257122 
L 263.750342 81.257122 
L 262.268756 81.295357 
L 260.834964 81.295357 
L 259.353378 81.295357 
L 257.919585 81.295357 
L 256.438 81.027715 
L 254.956414 81.180653 
L 253.522621 81.142419 
L 252.041036 81.142419 
L 250.607243 81.142419 
L 249.125658 81.142419 
L 247.787451 81.142419 
L 246.305865 81.142419 
L 244.82428 81.142419 
L 243.390487 81.180653 
L 241.908901 81.180653 
L 240.475109 81.180653 
L 238.993523 81.142419 
L 237.511938 81.142419 
L 236.078145 81.142419 
L 234.596559 81.142419 
L 233.162767 81.142419 
L 231.681181 81.142419 
L 230.342975 81.142419 
L 228.861389 81.142419 
L 227.379803 81.142419 
L 225.946011 81.142419 
L 224.464425 81.180653 
L 223.030632 81.142419 
L 221.549047 81.180653 
L 220.067461 81.142419 
L 218.633668 81.142419 
L 217.152083 81.142419 
L 215.71829 81.142419 
L 214.236704 81.142419 
L 212.850705 81.142419 
L 211.369119 81.180653 
L 209.887534 81.180653 
L 208.453741 81.142419 
L 206.972155 81.142419 
L 205.538363 81.142419 
L 204.056777 81.218888 
L 201.236985 81.486529 
L 200.042158 82.136515 
L 199.038503 82.212984 
L 197.843676 81.601232 
L 196.887814 83.092377 
L 195.549608 83.092377 
L 192.825402 84.468818 
L 190.196782 84.468818 
L 189.384299 84.430583 
L 188.093886 84.583521 
L 186.75568 84.545287 
L 185.130715 84.545287 
L 184.12706 84.545287 
L 183.123405 84.545287 
L 178.726441 84.851162 
L 177.818372 84.851162 
L 173.13465 85.042335 
L 170.792789 85.0041 
L 170.028099 85.0041 
L 169.072238 85.080569 
L 168.450928 85.080569 
L 167.925204 85.080569 
L 164.77086 85.615852 
L 161.377551 85.730555 
L 159.657 85.730555 
L 157.984242 85.730555 
L 154.973277 85.730555 
L 154.208588 85.692321 
L 152.965968 85.692321 
L 150.958658 85.577617 
L 147.852107 85.539383 
L 146.705073 86.533479 
L 144.02866 86.648182 
L 142.594868 86.762886 
L 140.92211 86.648182 
L 139.010386 86.648182 
L 137.624387 86.609948 
L 136.572939 86.609948 
L 135.856043 86.609948 
L 134.804595 86.571713 
L 133.80094 86.571713 
L 133.131837 86.609948 
L 132.940664 86.609948 
L 132.223768 86.609948 
L 131.267906 87.030527 
L 129.9297 86.609948 
L 129.451769 86.609948 
L 128.926045 86.648182 
L 128.161356 86.571713 
L 127.444459 86.571713 
L 126.775356 86.954058 
L 125.819494 86.877589 
L 125.484943 86.45701 
L 124.576874 86.992293 
L 123.42984 86.839355 
L 122.569565 86.877589 
L 122.091634 86.877589 
L 121.279151 86.877589 
L 120.753427 86.915824 
L 119.940945 87.412872 
L 119.271842 86.877589 
L 118.459359 86.877589 
L 115.305015 87.833451 
L 115.06605 87.871685 
L 113.154326 87.833451 
L 108.996328 86.954058 
L 106.750053 87.833451 
L 98.051711 88.59814 
L 84.048337 89.018719 
L 65.026688 89.70694 
L 48.63366 90.127519 
L 40.652214 91.121615 
L 32.575183 90.968677 
z
" clip-path="url(#p1d108a47f3)" style="fill: #d5dce5"/>
   </g>
   <g id="matplotlib.axis_1">
    <g id="xtick_1">
     <g id="line2d_1">
      <defs>
       <path id="m2e688e797e" d="M 0 0 
L 0 3.5 
" style="stroke: #000000; stroke-width: 0.8"/>
      </defs>
      <g>
       <use xlink:href="#m2e688e797e" x="71.717721" y="274.570598" style="stroke: #000000; stroke-width: 0.8"/>
      </g>
     </g>
     <g id="text_1">
      <!-- 2004 -->
      <g transform="translate(58.992721 289.169036) scale(0.1 -0.1)">
       <defs>
        <path id="DejaVuSans-32" d="M 1228 531 
L 3431 531 
L 3431 0 
L 469 0 
L 469 531 
Q 828 903 1448 1529 
Q 2069 2156 2228 2338 
Q 2531 2678 2651 2914 
Q 2772 3150 2772 3378 
Q 2772 3750 2511 3984 
Q 2250 4219 1831 4219 
Q 1534 4219 1204 4116 
Q 875 4013 500 3803 
L 500 4441 
Q 881 4594 1212 4672 
Q 1544 4750 1819 4750 
Q 2544 4750 2975 4387 
Q 3406 4025 3406 3419 
Q 3406 3131 3298 2873 
Q 3191 2616 2906 2266 
Q 2828 2175 2409 1742 
Q 1991 1309 1228 531 
z
" transform="scale(0.015625)"/>
        <path id="DejaVuSans-30" d="M 2034 4250 
Q 1547 4250 1301 3770 
Q 1056 3291 1056 2328 
Q 1056 1369 1301 889 
Q 1547 409 2034 409 
Q 2525 409 2770 889 
Q 3016 1369 3016 2328 
Q 3016 3291 2770 3770 
Q 2525 4250 2034 4250 
z
M 2034 4750 
Q 2819 4750 3233 4129 
Q 3647 3509 3647 2328 
Q 3647 1150 3233 529 
Q 2819 -91 2034 -91 
Q 1250 -91 836 529 
Q 422 1150 422 2328 
Q 422 3509 836 4129 
Q 1250 4750 2034 4750 
z
" transform="scale(0.015625)"/>
        <path id="DejaVuSans-34" d="M 2419 4116 
L 825 1625 
L 2419 1625 
L 2419 4116 
z
M 2253 4666 
L 3047 4666 
L 3047 1625 
L 3713 1625 
L 3713 1100 
L 3047 1100 
L 3047 0 
L 2419 0 
L 2419 1100 
L 313 1100 
L 313 1709 
L 2253 4666 
z
" transform="scale(0.015625)"/>
       </defs>
       <use xlink:href="#DejaVuSans-32"/>
       <use xlink:href="#DejaVuSans-30" x="63.623047"/>
       <use xlink:href="#DejaVuSans-30" x="127.246094"/>
       <use xlink:href="#DejaVuSans-34" x="190.869141"/>
      </g>
     </g>
    </g>
    <g id="xtick_2">
     <g id="line2d_2">
      <g>
       <use xlink:href="#m2e688e797e" x="141.54342" y="274.570598" style="stroke: #000000; stroke-width: 0.8"/>
      </g>
     </g>
     <g id="text_2">
      <!-- 2008 -->
      <g transform="translate(128.81842 289.169036) scale(0.1 -0.1)">
       <defs>
        <path id="DejaVuSans-38" d="M 2034 2216 
Q 1584 2216 1326 1975 
Q 1069 1734 1069 1313 
Q 1069 891 1326 650 
Q 1584 409 2034 409 
Q 2484 409 2743 651 
Q 3003 894 3003 1313 
Q 3003 1734 2745 1975 
Q 2488 2216 2034 2216 
z
M 1403 2484 
Q 997 2584 770 2862 
Q 544 3141 544 3541 
Q 544 4100 942 4425 
Q 1341 4750 2034 4750 
Q 2731 4750 3128 4425 
Q 3525 4100 3525 3541 
Q 3525 3141 3298 2862 
Q 3072 2584 2669 2484 
Q 3125 2378 3379 2068 
Q 3634 1759 3634 1313 
Q 3634 634 3220 271 
Q 2806 -91 2034 -91 
Q 1263 -91 848 271 
Q 434 634 434 1313 
Q 434 1759 690 2068 
Q 947 2378 1403 2484 
z
M 1172 3481 
Q 1172 3119 1398 2916 
Q 1625 2713 2034 2713 
Q 2441 2713 2670 2916 
Q 2900 3119 2900 3481 
Q 2900 3844 2670 4047 
Q 2441 4250 2034 4250 
Q 1625 4250 1398 4047 
Q 1172 3844 1172 3481 
z
" transform="scale(0.015625)"/>
       </defs>
       <use xlink:href="#DejaVuSans-32"/>
       <use xlink:href="#DejaVuSans-30" x="63.623047"/>
       <use xlink:href="#DejaVuSans-30" x="127.246094"/>
       <use xlink:href="#DejaVuSans-38" x="190.869141"/>
      </g>
     </g>
    </g>
    <g id="xtick_3">
     <g id="line2d_3">
      <g>
       <use xlink:href="#m2e688e797e" x="211.369119" y="274.570598" style="stroke: #000000; stroke-width: 0.8"/>
      </g>
     </g>
     <g id="text_3">
      <!-- 2012 -->
      <g transform="translate(198.644119 289.169036) scale(0.1 -0.1)">
       <defs>
        <path id="DejaVuSans-31" d="M 794 531 
L 1825 531 
L 1825 4091 
L 703 3866 
L 703 4441 
L 1819 4666 
L 2450 4666 
L 2450 531 
L 3481 531 
L 3481 0 
L 794 0 
L 794 531 
z
" transform="scale(0.015625)"/>
       </defs>
       <use xlink:href="#DejaVuSans-32"/>
       <use xlink:href="#DejaVuSans-30" x="63.623047"/>
       <use xlink:href="#DejaVuSans-31" x="127.246094"/>
       <use xlink:href="#DejaVuSans-32" x="190.869141"/>
      </g>
     </g>
    </g>
    <g id="xtick_4">
     <g id="line2d_4">
      <g>
       <use xlink:href="#m2e688e797e" x="281.194819" y="274.570598" style="stroke: #000000; stroke-width: 0.8"/>
      </g>
     </g>
     <g id="text_4">
      <!-- 2016 -->
      <g transform="translate(268.469819 289.169036) scale(0.1 -0.1)">
       <defs>
        <path id="DejaVuSans-36" d="M 2113 2584 
Q 1688 2584 1439 2293 
Q 1191 2003 1191 1497 
Q 1191 994 1439 701 
Q 1688 409 2113 409 
Q 2538 409 2786 701 
Q 3034 994 3034 1497 
Q 3034 2003 2786 2293 
Q 2538 2584 2113 2584 
z
M 3366 4563 
L 3366 3988 
Q 3128 4100 2886 4159 
Q 2644 4219 2406 4219 
Q 1781 4219 1451 3797 
Q 1122 3375 1075 2522 
Q 1259 2794 1537 2939 
Q 1816 3084 2150 3084 
Q 2853 3084 3261 2657 
Q 3669 2231 3669 1497 
Q 3669 778 3244 343 
Q 2819 -91 2113 -91 
Q 1303 -91 875 529 
Q 447 1150 447 2328 
Q 447 3434 972 4092 
Q 1497 4750 2381 4750 
Q 2619 4750 2861 4703 
Q 3103 4656 3366 4563 
z
" transform="scale(0.015625)"/>
       </defs>
       <use xlink:href="#DejaVuSans-32"/>
       <use xlink:href="#DejaVuSans-30" x="63.623047"/>
       <use xlink:href="#DejaVuSans-31" x="127.246094"/>
       <use xlink:href="#DejaVuSans-36" x="190.869141"/>
      </g>
     </g>
    </g>
    <g id="xtick_5">
     <g id="line2d_5">
      <g>
       <use xlink:href="#m2e688e797e" x="351.020518" y="274.570598" style="stroke: #000000; stroke-width: 0.8"/>
      </g>
     </g>
     <g id="text_5">
      <!-- 2020 -->
      <g transform="translate(338.295518 289.169036) scale(0.1 -0.1)">
       <use xlink:href="#DejaVuSans-32"/>
       <use xlink:href="#DejaVuSans-30" x="63.623047"/>
       <use xlink:href="#DejaVuSans-32" x="127.246094"/>
       <use xlink:href="#DejaVuSans-30" x="190.869141"/>
      </g>
     </g>
    </g>
    <g id="xtick_6">
     <g id="line2d_6">
      <g>
       <use xlink:href="#m2e688e797e" x="420.846217" y="274.570598" style="stroke: #000000; stroke-width: 0.8"/>
      </g>
     </g>
     <g id="text_6">
      <!-- 2024 -->
      <g transform="translate(408.121217 289.169036) scale(0.1 -0.1)">
       <use xlink:href="#DejaVuSans-32"/>
       <use xlink:href="#DejaVuSans-30" x="63.623047"/>
       <use xlink:href="#DejaVuSans-32" x="127.246094"/>
       <use xlink:href="#DejaVuSans-34" x="190.869141"/>
      </g>
     </g>
    </g>
    <g id="text_7">
     <!-- Year -->
     <g transform="translate(239.86375 306.64638) scale(0.15 -0.15)">
      <defs>
       <path id="DejaVuSans-59" d="M -13 4666 
L 666 4666 
L 1959 2747 
L 3244 4666 
L 3922 4666 
L 2272 2222 
L 2272 0 
L 1638 0 
L 1638 2222 
L -13 4666 
z
" transform="scale(0.015625)"/>
       <path id="DejaVuSans-65" d="M 3597 1894 
L 3597 1613 
L 953 1613 
Q 991 1019 1311 708 
Q 1631 397 2203 397 
Q 2534 397 2845 478 
Q 3156 559 3463 722 
L 3463 178 
Q 3153 47 2828 -22 
Q 2503 -91 2169 -91 
Q 1331 -91 842 396 
Q 353 884 353 1716 
Q 353 2575 817 3079 
Q 1281 3584 2069 3584 
Q 2775 3584 3186 3129 
Q 3597 2675 3597 1894 
z
M 3022 2063 
Q 3016 2534 2758 2815 
Q 2500 3097 2075 3097 
Q 1594 3097 1305 2825 
Q 1016 2553 972 2059 
L 3022 2063 
z
" transform="scale(0.015625)"/>
       <path id="DejaVuSans-61" d="M 2194 1759 
Q 1497 1759 1228 1600 
Q 959 1441 959 1056 
Q 959 750 1161 570 
Q 1363 391 1709 391 
Q 2188 391 2477 730 
Q 2766 1069 2766 1631 
L 2766 1759 
L 2194 1759 
z
M 3341 1997 
L 3341 0 
L 2766 0 
L 2766 531 
Q 2569 213 2275 61 
Q 1981 -91 1556 -91 
Q 1019 -91 701 211 
Q 384 513 384 1019 
Q 384 1609 779 1909 
Q 1175 2209 1959 2209 
L 2766 2209 
L 2766 2266 
Q 2766 2663 2505 2880 
Q 2244 3097 1772 3097 
Q 1472 3097 1187 3025 
Q 903 2953 641 2809 
L 641 3341 
Q 956 3463 1253 3523 
Q 1550 3584 1831 3584 
Q 2591 3584 2966 3190 
Q 3341 2797 3341 1997 
z
" transform="scale(0.015625)"/>
       <path id="DejaVuSans-72" d="M 2631 2963 
Q 2534 3019 2420 3045 
Q 2306 3072 2169 3072 
Q 1681 3072 1420 2755 
Q 1159 2438 1159 1844 
L 1159 0 
L 581 0 
L 581 3500 
L 1159 3500 
L 1159 2956 
Q 1341 3275 1631 3429 
Q 1922 3584 2338 3584 
Q 2397 3584 2469 3576 
Q 2541 3569 2628 3553 
L 2631 2963 
z
" transform="scale(0.015625)"/>
      </defs>
      <use xlink:href="#DejaVuSans-59"/>
      <use xlink:href="#DejaVuSans-65" x="47.833984"/>
      <use xlink:href="#DejaVuSans-61" x="109.357422"/>
      <use xlink:href="#DejaVuSans-72" x="170.636719"/>
     </g>
    </g>
   </g>
   <g id="matplotlib.axis_2">
    <g id="ytick_1">
     <g id="line2d_7">
      <defs>
       <path id="m49a07a290e" d="M 0 0 
L -3.5 0 
" style="stroke: #000000; stroke-width: 0.8"/>
      </defs>
      <g>
       <use xlink:href="#m49a07a290e" x="61.49" y="274.570598" style="stroke: #000000; stroke-width: 0.8"/>
      </g>
     </g>
     <g id="text_8">
      <!-- 0 -->
      <g transform="translate(48.1275 278.369817) scale(0.1 -0.1)">
       <use xlink:href="#DejaVuSans-30"/>
      </g>
     </g>
    </g>
    <g id="ytick_2">
     <g id="line2d_8">
      <g>
       <use xlink:href="#m49a07a290e" x="61.49" y="236.336129" style="stroke: #000000; stroke-width: 0.8"/>
      </g>
     </g>
     <g id="text_9">
      <!-- 1000 -->
      <g transform="translate(29.04 240.135348) scale(0.1 -0.1)">
       <use xlink:href="#DejaVuSans-31"/>
       <use xlink:href="#DejaVuSans-30" x="63.623047"/>
       <use xlink:href="#DejaVuSans-30" x="127.246094"/>
       <use xlink:href="#DejaVuSans-30" x="190.869141"/>
      </g>
     </g>
    </g>
    <g id="ytick_3">
     <g id="line2d_9">
      <g>
       <use xlink:href="#m49a07a290e" x="61.49" y="198.10166" style="stroke: #000000; stroke-width: 0.8"/>
      </g>
     </g>
     <g id="text_10">
      <!-- 2000 -->
      <g transform="translate(29.04 201.900879) scale(0.1 -0.1)">
       <use xlink:href="#DejaVuSans-32"/>
       <use xlink:href="#DejaVuSans-30" x="63.623047"/>
       <use xlink:href="#DejaVuSans-30" x="127.246094"/>
       <use xlink:href="#DejaVuSans-30" x="190.869141"/>
      </g>
     </g>
    </g>
    <g id="ytick_4">
     <g id="line2d_10">
      <g>
       <use xlink:href="#m49a07a290e" x="61.49" y="159.867191" style="stroke: #000000; stroke-width: 0.8"/>
      </g>
     </g>
     <g id="text_11">
      <!-- 3000 -->
      <g transform="translate(29.04 163.66641) scale(0.1 -0.1)">
       <defs>
        <path id="DejaVuSans-33" d="M 2597 2516 
Q 3050 2419 3304 2112 
Q 3559 1806 3559 1356 
Q 3559 666 3084 287 
Q 2609 -91 1734 -91 
Q 1441 -91 1130 -33 
Q 819 25 488 141 
L 488 750 
Q 750 597 1062 519 
Q 1375 441 1716 441 
Q 2309 441 2620 675 
Q 2931 909 2931 1356 
Q 2931 1769 2642 2001 
Q 2353 2234 1838 2234 
L 1294 2234 
L 1294 2753 
L 1863 2753 
Q 2328 2753 2575 2939 
Q 2822 3125 2822 3475 
Q 2822 3834 2567 4026 
Q 2313 4219 1838 4219 
Q 1578 4219 1281 4162 
Q 984 4106 628 3988 
L 628 4550 
Q 988 4650 1302 4700 
Q 1616 4750 1894 4750 
Q 2613 4750 3031 4423 
Q 3450 4097 3450 3541 
Q 3450 3153 3228 2886 
Q 3006 2619 2597 2516 
z
" transform="scale(0.015625)"/>
       </defs>
       <use xlink:href="#DejaVuSans-33"/>
       <use xlink:href="#DejaVuSans-30" x="63.623047"/>
       <use xlink:href="#DejaVuSans-30" x="127.246094"/>
       <use xlink:href="#DejaVuSans-30" x="190.869141"/>
      </g>
     </g>
    </g>
    <g id="ytick_5">
     <g id="line2d_11">
      <g>
       <use xlink:href="#m49a07a290e" x="61.49" y="121.632722" style="stroke: #000000; stroke-width: 0.8"/>
      </g>
     </g>
     <g id="text_12">
      <!-- 4000 -->
      <g transform="translate(29.04 125.43194) scale(0.1 -0.1)">
       <use xlink:href="#DejaVuSans-34"/>
       <use xlink:href="#DejaVuSans-30" x="63.623047"/>
       <use xlink:href="#DejaVuSans-30" x="127.246094"/>
       <use xlink:href="#DejaVuSans-30" x="190.869141"/>
      </g>
     </g>
    </g>
    <g id="ytick_6">
     <g id="line2d_12">
      <g>
       <use xlink:href="#m49a07a290e" x="61.49" y="83.398252" style="stroke: #000000; stroke-width: 0.8"/>
      </g>
     </g>
     <g id="text_13">
      <!-- 5000 -->
      <g transform="translate(29.04 87.197471) scale(0.1 -0.1)">
       <defs>
        <path id="DejaVuSans-35" d="M 691 4666 
L 3169 4666 
L 3169 4134 
L 1269 4134 
L 1269 2991 
Q 1406 3038 1543 3061 
Q 1681 3084 1819 3084 
Q 2600 3084 3056 2656 
Q 3513 2228 3513 1497 
Q 3513 744 3044 326 
Q 2575 -91 1722 -91 
Q 1428 -91 1123 -41 
Q 819 9 494 109 
L 494 744 
Q 775 591 1075 516 
Q 1375 441 1709 441 
Q 2250 441 2565 725 
Q 2881 1009 2881 1497 
Q 2881 1984 2565 2268 
Q 2250 2553 1709 2553 
Q 1456 2553 1204 2497 
Q 953 2441 691 2322 
L 691 4666 
z
" transform="scale(0.015625)"/>
       </defs>
       <use xlink:href="#DejaVuSans-35"/>
       <use xlink:href="#DejaVuSans-30" x="63.623047"/>
       <use xlink:href="#DejaVuSans-30" x="127.246094"/>
       <use xlink:href="#DejaVuSans-30" x="190.869141"/>
      </g>
     </g>
    </g>
    <g id="text_14">
     <!-- Number of proteins -->
     <g transform="translate(21.920469 245.489062) rotate(-90) scale(0.15 -0.15)">
      <defs>
       <path id="DejaVuSans-4e" d="M 628 4666 
L 1478 4666 
L 3547 763 
L 3547 4666 
L 4159 4666 
L 4159 0 
L 3309 0 
L 1241 3903 
L 1241 0 
L 628 0 
L 628 4666 
z
" transform="scale(0.015625)"/>
       <path id="DejaVuSans-75" d="M 544 1381 
L 544 3500 
L 1119 3500 
L 1119 1403 
Q 1119 906 1312 657 
Q 1506 409 1894 409 
Q 2359 409 2629 706 
Q 2900 1003 2900 1516 
L 2900 3500 
L 3475 3500 
L 3475 0 
L 2900 0 
L 2900 538 
Q 2691 219 2414 64 
Q 2138 -91 1772 -91 
Q 1169 -91 856 284 
Q 544 659 544 1381 
z
M 1991 3584 
L 1991 3584 
z
" transform="scale(0.015625)"/>
       <path id="DejaVuSans-6d" d="M 3328 2828 
Q 3544 3216 3844 3400 
Q 4144 3584 4550 3584 
Q 5097 3584 5394 3201 
Q 5691 2819 5691 2113 
L 5691 0 
L 5113 0 
L 5113 2094 
Q 5113 2597 4934 2840 
Q 4756 3084 4391 3084 
Q 3944 3084 3684 2787 
Q 3425 2491 3425 1978 
L 3425 0 
L 2847 0 
L 2847 2094 
Q 2847 2600 2669 2842 
Q 2491 3084 2119 3084 
Q 1678 3084 1418 2786 
Q 1159 2488 1159 1978 
L 1159 0 
L 581 0 
L 581 3500 
L 1159 3500 
L 1159 2956 
Q 1356 3278 1631 3431 
Q 1906 3584 2284 3584 
Q 2666 3584 2933 3390 
Q 3200 3197 3328 2828 
z
" transform="scale(0.015625)"/>
       <path id="DejaVuSans-62" d="M 3116 1747 
Q 3116 2381 2855 2742 
Q 2594 3103 2138 3103 
Q 1681 3103 1420 2742 
Q 1159 2381 1159 1747 
Q 1159 1113 1420 752 
Q 1681 391 2138 391 
Q 2594 391 2855 752 
Q 3116 1113 3116 1747 
z
M 1159 2969 
Q 1341 3281 1617 3432 
Q 1894 3584 2278 3584 
Q 2916 3584 3314 3078 
Q 3713 2572 3713 1747 
Q 3713 922 3314 415 
Q 2916 -91 2278 -91 
Q 1894 -91 1617 61 
Q 1341 213 1159 525 
L 1159 0 
L 581 0 
L 581 4863 
L 1159 4863 
L 1159 2969 
z
" transform="scale(0.015625)"/>
       <path id="DejaVuSans-20" transform="scale(0.015625)"/>
       <path id="DejaVuSans-6f" d="M 1959 3097 
Q 1497 3097 1228 2736 
Q 959 2375 959 1747 
Q 959 1119 1226 758 
Q 1494 397 1959 397 
Q 2419 397 2687 759 
Q 2956 1122 2956 1747 
Q 2956 2369 2687 2733 
Q 2419 3097 1959 3097 
z
M 1959 3584 
Q 2709 3584 3137 3096 
Q 3566 2609 3566 1747 
Q 3566 888 3137 398 
Q 2709 -91 1959 -91 
Q 1206 -91 779 398 
Q 353 888 353 1747 
Q 353 2609 779 3096 
Q 1206 3584 1959 3584 
z
" transform="scale(0.015625)"/>
       <path id="DejaVuSans-66" d="M 2375 4863 
L 2375 4384 
L 1825 4384 
Q 1516 4384 1395 4259 
Q 1275 4134 1275 3809 
L 1275 3500 
L 2222 3500 
L 2222 3053 
L 1275 3053 
L 1275 0 
L 697 0 
L 697 3053 
L 147 3053 
L 147 3500 
L 697 3500 
L 697 3744 
Q 697 4328 969 4595 
Q 1241 4863 1831 4863 
L 2375 4863 
z
" transform="scale(0.015625)"/>
       <path id="DejaVuSans-70" d="M 1159 525 
L 1159 -1331 
L 581 -1331 
L 581 3500 
L 1159 3500 
L 1159 2969 
Q 1341 3281 1617 3432 
Q 1894 3584 2278 3584 
Q 2916 3584 3314 3078 
Q 3713 2572 3713 1747 
Q 3713 922 3314 415 
Q 2916 -91 2278 -91 
Q 1894 -91 1617 61 
Q 1341 213 1159 525 
z
M 3116 1747 
Q 3116 2381 2855 2742 
Q 2594 3103 2138 3103 
Q 1681 3103 1420 2742 
Q 1159 2381 1159 1747 
Q 1159 1113 1420 752 
Q 1681 391 2138 391 
Q 2594 391 2855 752 
Q 3116 1113 3116 1747 
z
" transform="scale(0.015625)"/>
       <path id="DejaVuSans-74" d="M 1172 4494 
L 1172 3500 
L 2356 3500 
L 2356 3053 
L 1172 3053 
L 1172 1153 
Q 1172 725 1289 603 
Q 1406 481 1766 481 
L 2356 481 
L 2356 0 
L 1766 0 
Q 1100 0 847 248 
Q 594 497 594 1153 
L 594 3053 
L 172 3053 
L 172 3500 
L 594 3500 
L 594 4494 
L 1172 4494 
z
" transform="scale(0.015625)"/>
       <path id="DejaVuSans-69" d="M 603 3500 
L 1178 3500 
L 1178 0 
L 603 0 
L 603 3500 
z
M 603 4863 
L 1178 4863 
L 1178 4134 
L 603 4134 
L 603 4863 
z
" transform="scale(0.015625)"/>
       <path id="DejaVuSans-6e" d="M 3513 2113 
L 3513 0 
L 2938 0 
L 2938 2094 
Q 2938 2591 2744 2837 
Q 2550 3084 2163 3084 
Q 1697 3084 1428 2787 
Q 1159 2491 1159 1978 
L 1159 0 
L 581 0 
L 581 3500 
L 1159 3500 
L 1159 2956 
Q 1366 3272 1645 3428 
Q 1925 3584 2291 3584 
Q 2894 3584 3203 3211 
Q 3513 2838 3513 2113 
z
" transform="scale(0.015625)"/>
       <path id="DejaVuSans-73" d="M 2834 3397 
L 2834 2853 
Q 2591 2978 2328 3040 
Q 2066 3103 1784 3103 
Q 1356 3103 1142 2972 
Q 928 2841 928 2578 
Q 928 2378 1081 2264 
Q 1234 2150 1697 2047 
L 1894 2003 
Q 2506 1872 2764 1633 
Q 3022 1394 3022 966 
Q 3022 478 2636 193 
Q 2250 -91 1575 -91 
Q 1294 -91 989 -36 
Q 684 19 347 128 
L 347 722 
Q 666 556 975 473 
Q 1284 391 1588 391 
Q 1994 391 2212 530 
Q 2431 669 2431 922 
Q 2431 1156 2273 1281 
Q 2116 1406 1581 1522 
L 1381 1569 
Q 847 1681 609 1914 
Q 372 2147 372 2553 
Q 372 3047 722 3315 
Q 1072 3584 1716 3584 
Q 2034 3584 2315 3537 
Q 2597 3491 2834 3397 
z
" transform="scale(0.015625)"/>
      </defs>
      <use xlink:href="#DejaVuSans-4e"/>
      <use xlink:href="#DejaVuSans-75" x="74.804688"/>
      <use xlink:href="#DejaVuSans-6d" x="138.183594"/>
      <use xlink:href="#DejaVuSans-62" x="235.595703"/>
      <use xlink:href="#DejaVuSans-65" x="299.072266"/>
      <use xlink:href="#DejaVuSans-72" x="360.595703"/>
      <use xlink:href="#DejaVuSans-20" x="401.708984"/>
      <use xlink:href="#DejaVuSans-6f" x="433.496094"/>
      <use xlink:href="#DejaVuSans-66" x="494.677734"/>
      <use xlink:href="#DejaVuSans-20" x="529.882812"/>
      <use xlink:href="#DejaVuSans-70" x="561.669922"/>
      <use xlink:href="#DejaVuSans-72" x="625.146484"/>
      <use xlink:href="#DejaVuSans-6f" x="664.009766"/>
      <use xlink:href="#DejaVuSans-74" x="725.191406"/>
      <use xlink:href="#DejaVuSans-65" x="764.400391"/>
      <use xlink:href="#DejaVuSans-69" x="825.923828"/>
      <use xlink:href="#DejaVuSans-6e" x="853.707031"/>
      <use xlink:href="#DejaVuSans-73" x="917.085938"/>
     </g>
    </g>
   </g>
   <g id="patch_3">
    <path d="M 61.49 274.570598 
L 61.49 71.029402 
" style="fill: none; stroke: #000000; stroke-width: 0.8; stroke-linejoin: miter; stroke-linecap: square"/>
   </g>
   <g id="patch_4">
    <path d="M 61.49 274.570598 
L 450 274.570598 
" style="fill: none; stroke: #000000; stroke-width: 0.8; stroke-linejoin: miter; stroke-linecap: square"/>
   </g>
   <g id="legend_1">
    <g id="patch_5">
     <path d="M 98.395781 66.029402 
L 413.094219 66.029402 
Q 415.094219 66.029402 415.094219 64.029402 
L 415.094219 35.673152 
Q 415.094219 33.673152 413.094219 33.673152 
L 98.395781 33.673152 
Q 96.395781 33.673152 96.395781 35.673152 
L 96.395781 64.029402 
Q 96.395781 66.029402 98.395781 66.029402 
z
" style="fill: #ffffff; opacity: 0.8; stroke: #cccccc; stroke-linejoin: miter"/>
    </g>
    <g id="patch_6">
     <path d="M 100.395781 45.271589 
L 120.395781 45.271589 
L 120.395781 38.271589 
L 100.395781 38.271589 
z
" style="fill: #fb363b"/>
    </g>
    <g id="text_15">
     <!-- Biological role published -->
     <g transform="translate(128.395781 45.271589) scale(0.1 -0.1)">
      <defs>
       <path id="DejaVuSans-42" d="M 1259 2228 
L 1259 519 
L 2272 519 
Q 2781 519 3026 730 
Q 3272 941 3272 1375 
Q 3272 1813 3026 2020 
Q 2781 2228 2272 2228 
L 1259 2228 
z
M 1259 4147 
L 1259 2741 
L 2194 2741 
Q 2656 2741 2882 2914 
Q 3109 3088 3109 3444 
Q 3109 3797 2882 3972 
Q 2656 4147 2194 4147 
L 1259 4147 
z
M 628 4666 
L 2241 4666 
Q 2963 4666 3353 4366 
Q 3744 4066 3744 3513 
Q 3744 3084 3544 2831 
Q 3344 2578 2956 2516 
Q 3422 2416 3680 2098 
Q 3938 1781 3938 1306 
Q 3938 681 3513 340 
Q 3088 0 2303 0 
L 628 0 
L 628 4666 
z
" transform="scale(0.015625)"/>
       <path id="DejaVuSans-6c" d="M 603 4863 
L 1178 4863 
L 1178 0 
L 603 0 
L 603 4863 
z
" transform="scale(0.015625)"/>
       <path id="DejaVuSans-67" d="M 2906 1791 
Q 2906 2416 2648 2759 
Q 2391 3103 1925 3103 
Q 1463 3103 1205 2759 
Q 947 2416 947 1791 
Q 947 1169 1205 825 
Q 1463 481 1925 481 
Q 2391 481 2648 825 
Q 2906 1169 2906 1791 
z
M 3481 434 
Q 3481 -459 3084 -895 
Q 2688 -1331 1869 -1331 
Q 1566 -1331 1297 -1286 
Q 1028 -1241 775 -1147 
L 775 -588 
Q 1028 -725 1275 -790 
Q 1522 -856 1778 -856 
Q 2344 -856 2625 -561 
Q 2906 -266 2906 331 
L 2906 616 
Q 2728 306 2450 153 
Q 2172 0 1784 0 
Q 1141 0 747 490 
Q 353 981 353 1791 
Q 353 2603 747 3093 
Q 1141 3584 1784 3584 
Q 2172 3584 2450 3431 
Q 2728 3278 2906 2969 
L 2906 3500 
L 3481 3500 
L 3481 434 
z
" transform="scale(0.015625)"/>
       <path id="DejaVuSans-63" d="M 3122 3366 
L 3122 2828 
Q 2878 2963 2633 3030 
Q 2388 3097 2138 3097 
Q 1578 3097 1268 2742 
Q 959 2388 959 1747 
Q 959 1106 1268 751 
Q 1578 397 2138 397 
Q 2388 397 2633 464 
Q 2878 531 3122 666 
L 3122 134 
Q 2881 22 2623 -34 
Q 2366 -91 2075 -91 
Q 1284 -91 818 406 
Q 353 903 353 1747 
Q 353 2603 823 3093 
Q 1294 3584 2113 3584 
Q 2378 3584 2631 3529 
Q 2884 3475 3122 3366 
z
" transform="scale(0.015625)"/>
       <path id="DejaVuSans-68" d="M 3513 2113 
L 3513 0 
L 2938 0 
L 2938 2094 
Q 2938 2591 2744 2837 
Q 2550 3084 2163 3084 
Q 1697 3084 1428 2787 
Q 1159 2491 1159 1978 
L 1159 0 
L 581 0 
L 581 4863 
L 1159 4863 
L 1159 2956 
Q 1366 3272 1645 3428 
Q 1925 3584 2291 3584 
Q 2894 3584 3203 3211 
Q 3513 2838 3513 2113 
z
" transform="scale(0.015625)"/>
       <path id="DejaVuSans-64" d="M 2906 2969 
L 2906 4863 
L 3481 4863 
L 3481 0 
L 2906 0 
L 2906 525 
Q 2725 213 2448 61 
Q 2172 -91 1784 -91 
Q 1150 -91 751 415 
Q 353 922 353 1747 
Q 353 2572 751 3078 
Q 1150 3584 1784 3584 
Q 2172 3584 2448 3432 
Q 2725 3281 2906 2969 
z
M 947 1747 
Q 947 1113 1208 752 
Q 1469 391 1925 391 
Q 2381 391 2643 752 
Q 2906 1113 2906 1747 
Q 2906 2381 2643 2742 
Q 2381 3103 1925 3103 
Q 1469 3103 1208 2742 
Q 947 2381 947 1747 
z
" transform="scale(0.015625)"/>
      </defs>
      <use xlink:href="#DejaVuSans-42"/>
      <use xlink:href="#DejaVuSans-69" x="68.603516"/>
      <use xlink:href="#DejaVuSans-6f" x="96.386719"/>
      <use xlink:href="#DejaVuSans-6c" x="157.568359"/>
      <use xlink:href="#DejaVuSans-6f" x="185.351562"/>
      <use xlink:href="#DejaVuSans-67" x="246.533203"/>
      <use xlink:href="#DejaVuSans-69" x="310.009766"/>
      <use xlink:href="#DejaVuSans-63" x="337.792969"/>
      <use xlink:href="#DejaVuSans-61" x="392.773438"/>
      <use xlink:href="#DejaVuSans-6c" x="454.052734"/>
      <use xlink:href="#DejaVuSans-20" x="481.835938"/>
      <use xlink:href="#DejaVuSans-72" x="513.623047"/>
      <use xlink:href="#DejaVuSans-6f" x="552.486328"/>
      <use xlink:href="#DejaVuSans-6c" x="613.667969"/>
      <use xlink:href="#DejaVuSans-65" x="641.451172"/>
      <use xlink:href="#DejaVuSans-20" x="702.974609"/>
      <use xlink:href="#DejaVuSans-70" x="734.761719"/>
      <use xlink:href="#DejaVuSans-75" x="798.238281"/>
      <use xlink:href="#DejaVuSans-62" x="861.617188"/>
      <use xlink:href="#DejaVuSans-6c" x="925.09375"/>
      <use xlink:href="#DejaVuSans-69" x="952.876953"/>
      <use xlink:href="#DejaVuSans-73" x="980.660156"/>
      <use xlink:href="#DejaVuSans-68" x="1032.759766"/>
      <use xlink:href="#DejaVuSans-65" x="1096.138672"/>
      <use xlink:href="#DejaVuSans-64" x="1157.662109"/>
     </g>
    </g>
    <g id="patch_7">
     <path d="M 100.395781 59.949714 
L 120.395781 59.949714 
L 120.395781 52.949714 
L 100.395781 52.949714 
z
" style="fill: #fdc92c"/>
    </g>
    <g id="text_16">
     <!-- Biological role inferred -->
     <g transform="translate(128.395781 59.949714) scale(0.1 -0.1)">
      <use xlink:href="#DejaVuSans-42"/>
      <use xlink:href="#DejaVuSans-69" x="68.603516"/>
      <use xlink:href="#DejaVuSans-6f" x="96.386719"/>
      <use xlink:href="#DejaVuSans-6c" x="157.568359"/>
      <use xlink:href="#DejaVuSans-6f" x="185.351562"/>
      <use xlink:href="#DejaVuSans-67" x="246.533203"/>
      <use xlink:href="#DejaVuSans-69" x="310.009766"/>
      <use xlink:href="#DejaVuSans-63" x="337.792969"/>
      <use xlink:href="#DejaVuSans-61" x="392.773438"/>
      <use xlink:href="#DejaVuSans-6c" x="454.052734"/>
      <use xlink:href="#DejaVuSans-20" x="481.835938"/>
      <use xlink:href="#DejaVuSans-72" x="513.623047"/>
      <use xlink:href="#DejaVuSans-6f" x="552.486328"/>
      <use xlink:href="#DejaVuSans-6c" x="613.667969"/>
      <use xlink:href="#DejaVuSans-65" x="641.451172"/>
      <use xlink:href="#DejaVuSans-20" x="702.974609"/>
      <use xlink:href="#DejaVuSans-69" x="734.761719"/>
      <use xlink:href="#DejaVuSans-6e" x="762.544922"/>
      <use xlink:href="#DejaVuSans-66" x="825.923828"/>
      <use xlink:href="#DejaVuSans-65" x="861.128906"/>
      <use xlink:href="#DejaVuSans-72" x="922.652344"/>
      <use xlink:href="#DejaVuSans-72" x="962.015625"/>
      <use xlink:href="#DejaVuSans-65" x="1000.878906"/>
      <use xlink:href="#DejaVuSans-64" x="1062.402344"/>
     </g>
    </g>
    <g id="patch_8">
     <path d="M 270.512969 45.271589 
L 290.512969 45.271589 
L 290.512969 38.271589 
L 270.512969 38.271589 
z
" style="fill: #aeaeae"/>
    </g>
    <g id="text_17">
     <!-- Conserved unknown -->
     <g transform="translate(298.512969 45.271589) scale(0.1 -0.1)">
      <defs>
       <path id="DejaVuSans-43" d="M 4122 4306 
L 4122 3641 
Q 3803 3938 3442 4084 
Q 3081 4231 2675 4231 
Q 1875 4231 1450 3742 
Q 1025 3253 1025 2328 
Q 1025 1406 1450 917 
Q 1875 428 2675 428 
Q 3081 428 3442 575 
Q 3803 722 4122 1019 
L 4122 359 
Q 3791 134 3420 21 
Q 3050 -91 2638 -91 
Q 1578 -91 968 557 
Q 359 1206 359 2328 
Q 359 3453 968 4101 
Q 1578 4750 2638 4750 
Q 3056 4750 3426 4639 
Q 3797 4528 4122 4306 
z
" transform="scale(0.015625)"/>
       <path id="DejaVuSans-76" d="M 191 3500 
L 800 3500 
L 1894 563 
L 2988 3500 
L 3597 3500 
L 2284 0 
L 1503 0 
L 191 3500 
z
" transform="scale(0.015625)"/>
       <path id="DejaVuSans-6b" d="M 581 4863 
L 1159 4863 
L 1159 1991 
L 2875 3500 
L 3609 3500 
L 1753 1863 
L 3688 0 
L 2938 0 
L 1159 1709 
L 1159 0 
L 581 0 
L 581 4863 
z
" transform="scale(0.015625)"/>
       <path id="DejaVuSans-77" d="M 269 3500 
L 844 3500 
L 1563 769 
L 2278 3500 
L 2956 3500 
L 3675 769 
L 4391 3500 
L 4966 3500 
L 4050 0 
L 3372 0 
L 2619 2869 
L 1863 0 
L 1184 0 
L 269 3500 
z
" transform="scale(0.015625)"/>
      </defs>
      <use xlink:href="#DejaVuSans-43"/>
      <use xlink:href="#DejaVuSans-6f" x="69.824219"/>
      <use xlink:href="#DejaVuSans-6e" x="131.005859"/>
      <use xlink:href="#DejaVuSans-73" x="194.384766"/>
      <use xlink:href="#DejaVuSans-65" x="246.484375"/>
      <use xlink:href="#DejaVuSans-72" x="308.007812"/>
      <use xlink:href="#DejaVuSans-76" x="349.121094"/>
      <use xlink:href="#DejaVuSans-65" x="408.300781"/>
      <use xlink:href="#DejaVuSans-64" x="469.824219"/>
      <use xlink:href="#DejaVuSans-20" x="533.300781"/>
      <use xlink:href="#DejaVuSans-75" x="565.087891"/>
      <use xlink:href="#DejaVuSans-6e" x="628.466797"/>
      <use xlink:href="#DejaVuSans-6b" x="691.845703"/>
      <use xlink:href="#DejaVuSans-6e" x="749.755859"/>
      <use xlink:href="#DejaVuSans-6f" x="813.134766"/>
      <use xlink:href="#DejaVuSans-77" x="874.316406"/>
      <use xlink:href="#DejaVuSans-6e" x="956.103516"/>
     </g>
    </g>
    <g id="patch_9">
     <path d="M 270.512969 59.949714 
L 290.512969 59.949714 
L 290.512969 52.949714 
L 270.512969 52.949714 
z
" style="fill: #d5dce5"/>
    </g>
    <g id="text_18">
     <!-- Fission yeast unknown -->
     <g transform="translate(298.512969 59.949714) scale(0.1 -0.1)">
      <defs>
       <path id="DejaVuSans-46" d="M 628 4666 
L 3309 4666 
L 3309 4134 
L 1259 4134 
L 1259 2759 
L 3109 2759 
L 3109 2228 
L 1259 2228 
L 1259 0 
L 628 0 
L 628 4666 
z
" transform="scale(0.015625)"/>
       <path id="DejaVuSans-79" d="M 2059 -325 
Q 1816 -950 1584 -1140 
Q 1353 -1331 966 -1331 
L 506 -1331 
L 506 -850 
L 844 -850 
Q 1081 -850 1212 -737 
Q 1344 -625 1503 -206 
L 1606 56 
L 191 3500 
L 800 3500 
L 1894 763 
L 2988 3500 
L 3597 3500 
L 2059 -325 
z
" transform="scale(0.015625)"/>
      </defs>
      <use xlink:href="#DejaVuSans-46"/>
      <use xlink:href="#DejaVuSans-69" x="50.269531"/>
      <use xlink:href="#DejaVuSans-73" x="78.052734"/>
      <use xlink:href="#DejaVuSans-73" x="130.152344"/>
      <use xlink:href="#DejaVuSans-69" x="182.251953"/>
      <use xlink:href="#DejaVuSans-6f" x="210.035156"/>
      <use xlink:href="#DejaVuSans-6e" x="271.216797"/>
      <use xlink:href="#DejaVuSans-20" x="334.595703"/>
      <use xlink:href="#DejaVuSans-79" x="366.382812"/>
      <use xlink:href="#DejaVuSans-65" x="425.5625"/>
      <use xlink:href="#DejaVuSans-61" x="487.085938"/>
      <use xlink:href="#DejaVuSans-73" x="548.365234"/>
      <use xlink:href="#DejaVuSans-74" x="600.464844"/>
      <use xlink:href="#DejaVuSans-20" x="639.673828"/>
      <use xlink:href="#DejaVuSans-75" x="671.460938"/>
      <use xlink:href="#DejaVuSans-6e" x="734.839844"/>
      <use xlink:href="#DejaVuSans-6b" x="798.21875"/>
      <use xlink:href="#DejaVuSans-6e" x="856.128906"/>
      <use xlink:href="#DejaVuSans-6f" x="919.507812"/>
      <use xlink:href="#DejaVuSans-77" x="980.689453"/>
      <use xlink:href="#DejaVuSans-6e" x="1062.476562"/>
     </g>
    </g>
   </g>
  </g>
 </g>
 <defs>
  <clipPath id="p1d108a47f3">
   <rect x="61.49" y="71.029402" width="388.51" height="203.541197"/>
  </clipPath>
 </defs>
</svg>
