<?xml version="1.0" encoding="UTF-8" standalone="no"?>
<svg
   xmlns:dc="http://purl.org/dc/elements/1.1/"
   xmlns:cc="http://creativecommons.org/ns#"
   xmlns:rdf="http://www.w3.org/1999/02/22-rdf-syntax-ns#"
   xmlns:svg="http://www.w3.org/2000/svg"
   xmlns="http://www.w3.org/2000/svg"
   xmlns:sodipodi="http://sodipodi.sourceforge.net/DTD/sodipodi-0.dtd"
   xmlns:inkscape="http://www.inkscape.org/namespaces/inkscape"
   enable-background="new 0 0 800 600"
   height="120"
   width="120"
   version="1.1"
   id="svg14"
   sodipodi:docname="pombase_icon_only.svg"
   inkscape:version="0.92.4 (5da689c313, 2019-01-14)"
   viewBox="-800 -600 200 500">
  <sodipodi:namedview
     pagecolor="#ffffff"
     bordercolor="#666666"
     borderopacity="1"
     objecttolerance="10"
     gridtolerance="10"
     guidetolerance="10"
     inkscape:pageopacity="0"
     inkscape:pageshadow="2"
     inkscape:window-width="1920"
     inkscape:window-height="1010"
     id="namedview12"
     showgrid="false"
     inkscape:zoom="3.3501862"
     inkscape:cx="30.87733"
     inkscape:cy="30.598833"
     inkscape:window-x="1920"
     inkscape:window-y="0"
     inkscape:window-maximized="1"
     inkscape:current-layer="svg14" />
  <animateTransform
     attributeName="transform"
     type="rotate"
     from="0 0 0"
     to="360 0 0"
     dur="4s"
     repeatCount="indefinite" />
  <metadata
     id="metadata20">
    <rdf:RDF>
      <cc:Work
         rdf:about="">
        <dc:format>image/svg+xml</dc:format>
        <dc:type
           rdf:resource="http://purl.org/dc/dcmitype/StillImage" />
        <dc:title />
      </cc:Work>
    </rdf:RDF>
  </metadata>
  <defs
     id="defs18" />
  <path
     d="m 95,-1282.016 h 573.001 v 138 H 95 Z"
     id="path2"
     inkscape:connector-curvature="0"
     style="fill:none" />
  <g
     id="g828"
     transform="matrix(5.0589368,0,0,5.0589368,6039.7637,-7413.4585)">
    <g
       transform="translate(-1534.5565,1112.2927)"
       id="g835">
      <path
         style="fill:#47b549"
         inkscape:connector-curvature="0"
         d="m 215.433,311.678 c 0,5.646 -5.438,10.229 -12.146,10.229 -6.709,0 -12.148,-4.583 -12.148,-10.229 v -54.554 c 0,-5.652 5.439,-10.228 12.148,-10.228 6.708,0 12.146,4.576 12.146,10.228 z"
         id="path6" />
      <path
         style="fill:#ed3034"
         inkscape:connector-curvature="0"
         d="m 213.417,284.401 c 0,5.559 -4.538,10.063 -10.128,10.063 -5.598,0 -10.135,-4.505 -10.135,-10.063 0,-5.557 4.537,-10.063 10.135,-10.063 5.59,0 10.128,4.506 10.128,10.063"
         id="path10" />
      <path
         style="fill:#ffffff"
         inkscape:connector-curvature="0"
         d="m 191.962,257.122 h -0.44 z m 1.212,0 -0.001,54.554 c 0.006,4.234 4.28,8.184 10.114,8.193 5.831,-0.01 10.103,-3.957 10.109,-8.191 v -54.553 c -0.007,-4.236 -4.278,-8.181 -10.107,-8.194 -5.833,0.013 -10.107,3.954 -10.115,8.191 z m -4.074,54.561 1.212,-0.005 H 189.1 V 257.12 c 0.062,-7.052 6.606,-12.261 14.189,-12.261 7.579,0 14.118,5.208 14.182,12.263 v 54.561 c -0.063,7.046 -6.603,12.262 -14.185,12.262 -7.582,0 -14.12,-5.216 -14.186,-12.262"
         id="path8" />
      <path
         style="fill:#ffffff"
         inkscape:connector-curvature="0"
         d="m 193.538,284.402 h 0.44 z m 9.749,8.024 c 4.479,-0.007 8.086,-3.604 8.092,-8.023 -0.006,-4.424 -3.611,-8.019 -8.092,-8.027 -4.481,0.002 -8.088,3.602 -8.099,8.027 0.011,4.42 3.617,8.02 8.099,8.023 m -12.171,-8.024 c 0,-6.698 5.464,-12.089 12.171,-12.101 6.708,0 12.164,5.403 12.169,12.101 -0.008,6.694 -5.461,12.095 -12.171,12.1 -6.705,-0.012 -12.169,-5.403 -12.169,-12.1"
         id="path12" />
    </g>
    <path
       sodipodi:nodetypes="cccccccccccccccccccccsccc"
       d="m -1337.1085,1347.6957 c -7.785,0.7513 -13.268,2.8295 -18.1436,6.8898 -5.6909,4.7477 -8.3285,11.3178 -9.1917,22.8434 -0.2078,2.8614 -0.2078,35.3921 0,38.845 0.5275,8.4724 1.8703,13.4119 4.8916,17.9998 1.1349,1.7264 3.5488,4.1722 5.1633,5.2433 4.9076,3.261 11.5256,4.9075 20.6374,5.1633 8.1686,0.2238 14.6588,-0.9591 19.9181,-3.5968 4.6837,-2.3498 8.7281,-6.4901 11.2538,-11.5256 1.7744,-3.5488 2.4618,-6.5541 3.0533,-13.4438 0.2557,-2.9414 0.3836,-35.3442 0.1598,-39.3725 -0.3996,-6.8259 -1.0231,-9.6713 -2.9733,-13.6198 -2.8135,-5.6589 -6.8099,-9.4315 -12.8844,-12.165 -3.4209,-1.5346 -6.9218,-2.4938 -11.0301,-3.0213 -2.222,-0.2877 -8.7761,-0.4316 -10.8542,-0.2398 z m 15.1874,15.006 c 1.7075,2.2134 2.7588,4.8753 2.8237,8.318 0.2078,3.7406 -0.126,46.4119 -0.3178,49.4971 -0.057,5.697 -0.2521,7.8721 -2.0075,9.4837 -0.6234,1.1509 -3.3605,3.8861 -9.1384,4.1089 -5.7357,0.4297 -9.5869,-1.4349 -12.371,-5.4255 -1.3124,-4.7132 -1.0822,-12.0964 -0.9233,-31.4386 0.2254,-27.4463 -0.1429,-29.5487 1.6088,-33.103 2.0356,-3.3896 6.7904,-5.3322 10.9585,-5.2551 5.0585,-0.1138 8.059,1.8729 9.367,3.8145 z"
       id="path901"
       inkscape:connector-curvature="0"
       style="opacity:0.97000002;fill:#4e4e4e;fill-opacity:1;stroke:none;stroke-width:0.01598559" />
  </g>
</svg>
