<svg xmlns="http://www.w3.org/2000/svg" viewBox="0 0 96.51 96.51"><defs><style>.cls-1{fill:none;}.cls-2{fill:#fff;}</style></defs><title>wellcome-logo.svg</title><g id="Layer_2" data-name="Layer 2"><g id="Layer_1-2" data-name="Layer 1"><rect class="cls-1" width="96.51" height="96.51"/><path class="cls-2" d="M55.83,74.73a4.06,4.06,0,0,0-4.18,2.7c-.45-1.88-2.15-2.7-4-2.7-2.28,0-4.38,1.35-4.38,3.46v-6h-3v11h3v-3c0,2.22,2,3.36,4.29,3.36a4,4,0,0,0,4.07-2.68,4.06,4.06,0,0,0,4.16,2.68,4.39,4.39,0,1,0,0-8.77Zm-6.91,5.41c-.08,1-.5,1.17-1.3,1.17-1,0-1.35-.81-1.35-2.15,0-1,.25-2.23,1.41-2.23.73,0,1.16.21,1.16,1.21h2.6a5.49,5.49,0,0,0-.06,1,5.26,5.26,0,0,0,.07,1Zm6.91,1.09c-1.21,0-1.38-1.22-1.38-2.12S54.62,77,55.83,77s1.38,1.21,1.38,2.11S57,81.23,55.83,81.23Z"/><path class="cls-2" d="M77.75,74.89c-2.19,0-3.44,1.18-4.44,3v-.36c0-1.35-.48-2.82-2.56-2.82a3,3,0,0,0-2.26.85s0,.1-.07.15-.21.28-.27.34A2.36,2.36,0,0,0,66,74.76a2.91,2.91,0,0,0-2.67,1.37h0v-1h-3v8h3V78.77c0-.88.2-1.54,1-1.54,1,0,1,.75,1,1.54v4.37h3V78.77c0-.88.2-1.54,1-1.54,1,0,1,.75,1,1.54v4.37h3V80.43c1,2,2.41,3.18,4.58,3.18,1.89,0,3.81-.48,4.45-2.48H79.48c-.26,0-.83.64-1.33.64a1.57,1.57,0,0,1-1.63-1.64h6C82.52,76.14,80.9,74.89,77.75,74.89Zm-1.22,3.25a1.51,1.51,0,0,1,1.59-1.48,1.34,1.34,0,0,1,1.47,1.48Z"/><path class="cls-2" d="M39.31,83.14v-11h-3v5.47c-1-1.86-2-2.88-4.29-2.88a4.32,4.32,0,0,0-3.89,2.37l.63-2H25.55l-1.15,5h-.06l-1.1-5H20.35l-1,5h0l-1.23-5h-3.2l2.54,8h3.16l1.23-5h0l1.19,5h3.16l1.5-4.75a5.52,5.52,0,0,0-.05.71,4.2,4.2,0,0,0,4.55,4.38,4.56,4.56,0,0,0,4.15-2.32v2Zm-7.18-6.48a1.34,1.34,0,0,1,1.48,1.48H30.55A1.51,1.51,0,0,1,32.13,76.66Zm1.37,4.48c-.27,0-.83.64-1.33.64a1.57,1.57,0,0,1-1.63-1.64h5.78v1Z"/><path class="cls-2" d="M48.25,39.51c2,7.46,3.46,12.93,4,15.09.88,3.22,3,5.27,6.67,6.35,5,1.46,10.68,3.16,10.68,3.16l12.09-46-14.5-1.59L60.78,41.05c-2.46-9.35-4.71-17.8-5.09-19.19-1-3.59-3.38-5.52-6.9-5.52-3.82,0-6.58-.21-6.58-.21h0L35.71,40.87,29.26,16.44,14.78,18.17s8,30.31,9.41,35.8c.93,3.52,2.79,5.91,6.35,6.87s11.25,3.26,11.25,3.26Z"/></g></g></svg>